<svg xmlns="http://www.w3.org/2000/svg" version="1.1" xmlns:xlink="http://www.w3.org/1999/xlink" xmlns:svgjs="http://svgjs.dev/svgjs" width="2000" height="585" viewBox="0 0 2000 585"><g transform="matrix(1,0,0,1,-1.2121212121212466,1.1240515052782598)"><svg viewBox="0 0 396 116" data-background-color="#000000" preserveAspectRatio="xMidYMid meet" height="585" width="2000" xmlns="http://www.w3.org/2000/svg" xmlns:xlink="http://www.w3.org/1999/xlink"><g id="tight-bounds" transform="matrix(1,0,0,1,0.2400000000000091,-0.22288884549107024)"><svg viewBox="0 0 395.52 116.44577769098213" height="116.44577769098213" width="395.52"><g><svg viewBox="0 0 622.4083325531187 183.2443930155121" height="116.44577769098213" width="395.52"><g></g><g transform="matrix(1,0,0,1,0,25.32538282631174)"><svg viewBox="0 0 395.52 132.5936273628886" height="132.5936273628886" width="395.52"><g id="textblocktransform"><svg viewBox="0 0 395.52 132.5936273628886" height="132.5936273628886" width="395.52" id="textblock"><g><svg viewBox="0 0 395.52 61.2986447831184" height="61.2986447831184" width="395.52"><g transform="matrix(1,0,0,1,0,0)"><svg width="395.52" viewBox="2.85 -32.45 213.23000000000002 33.050000000000004" height="61.2986447831184" data-palette-color="url(#4de9f1c3-0846-4e20-8de1-6042ed461435)"></svg></g></svg></g><g transform="matrix(1,0,0,1,213.71584939044325,75.76978364893786)"><svg viewBox="0 0 181.80415060955673 56.82384371395075" height="56.82384371395075" width="181.80415060955673"><g transform="matrix(1,0,0,1,0,0)"><svg width="181.80415060955673" viewBox="2.3 -25.35 113.09 35.35" height="56.82384371395075" data-palette-color="url(#f56f8f03-cba9-4e6d-97a7-4de5f5828ab8)"></svg></g></svg></g></svg></g></svg></g><g transform="matrix(1,0,0,1,429.99025277838194,0)"><svg viewBox="0 0 192.41807977473673 183.2443930155121" height="183.2443930155121" width="192.41807977473673"><g><svg xmlns="http://www.w3.org/2000/svg" xmlns:xlink="http://www.w3.org/1999/xlink" version="1.1" x="0" y="0" viewBox="7.8 9.8 83.9 79.9" enable-background="new 0 0 100 100" xml:space="preserve" height="183.2443930155121" width="192.41807977473673" class="icon-icon-0" data-fill-palette-color="accent" id="icon-0"></svg></g></svg></g></svg></g><defs></defs><mask id="184b1b6d-b304-43da-bb6c-e521b8fa70c6"><g id="SvgjsG1006"><svg viewBox="0 0 395.52 116.44577769098213" height="116.44577769098213" width="395.52"><g><svg viewBox="0 0 622.4083325531187 183.2443930155121" height="116.44577769098213" width="395.52"><g><rect width="5.527975046743033" height="159.11235283546634" x="409.99113886581944" y="12.066020090022874" fill="white" opacity="1" stroke-width="0" stroke="transparent" fill-opacity="1" class="rect-qz-0" rx="1%" id="SvgjsRect1005" data-palette-color="url(#4de9f1c3-0846-4e20-8de1-6042ed461435)"></rect></g><g transform="matrix(1,0,0,1,0,25.32538282631174)"><svg viewBox="0 0 395.52 132.5936273628886" height="132.5936273628886" width="395.52"><g id="SvgjsG1004"><svg viewBox="0 0 395.52 132.5936273628886" height="132.5936273628886" width="395.52" id="SvgjsSvg1003"><g><svg viewBox="0 0 395.52 61.2986447831184" height="61.2986447831184" width="395.52"><g transform="matrix(1,0,0,1,0,0)"><svg width="395.52" viewBox="2.85 -32.45 213.23000000000002 33.050000000000004" height="61.2986447831184" data-palette-color="url(#4de9f1c3-0846-4e20-8de1-6042ed461435)"><path d="M10.95 0.6Q8.85 0.6 7.1 0.23 5.35-0.15 4.23-0.6 3.1-1.05 3.1-1.1L3.1-1.1 2.85-1.6Q2.9-1.9 3.05-3.1 3.2-4.3 3.33-6.23 3.45-8.15 3.45-10.3L3.45-10.3 5.7-10.55Q5.7-6.8 6.2-5 6.7-3.2 8.05-2.53 9.4-1.85 12.2-1.85L12.2-1.85Q15.35-1.85 17.25-3.33 19.15-4.8 19.15-7.35L19.15-7.35Q19.15-8.85 18.13-10.05 17.1-11.25 15.7-12.1 14.3-12.95 11.55-14.4L11.55-14.4Q8.95-15.75 7.3-16.88 5.65-18 4.53-19.55 3.4-21.1 3.4-23.15L3.4-23.15Q3.4-25.75 4.93-27.88 6.45-30 9.08-31.23 11.7-32.45 14.9-32.45L14.9-32.45Q16.9-32.45 18.6-32.18 20.3-31.9 21.3-31.6 22.3-31.3 22.55-31.2L22.55-31.2 22.7-30.9Q22.65-30.6 22.45-29.5 22.25-28.4 22-26.45 21.75-24.5 21.6-22.45L21.6-22.45 19.65-22.25 19.35-22.5Q19.4-22.7 19.45-23.43 19.5-24.15 19.5-25.1L19.5-25.1Q19.5-27.75 18.2-28.75 16.9-29.75 13.55-29.75L13.55-29.75Q10.8-29.75 9.03-28.38 7.25-27 7.25-24.95L7.25-24.95Q7.25-22.95 8.97-21.48 10.7-20 14.05-18.25L14.05-18.25Q17.3-16.6 19-15.53 20.7-14.45 22-12.85 23.3-11.25 23.3-9.15L23.3-9.15Q23.3-6.35 21.73-4.13 20.15-1.9 17.35-0.65 14.55 0.6 10.95 0.6L10.95 0.6ZM32 0.2L32.35-1.8Q34.35-1.95 35.17-2.3 36-2.65 36.22-3.48 36.45-4.3 36.45-6.35L36.45-6.35 36.45-22.9Q33.3-22.8 32.2-22.55 31.1-22.3 30.57-21.38 30.05-20.45 29.7-17.9L29.7-17.9 27.35-17.75Q27.45-18.4 27.67-20.63 27.9-22.85 27.95-25L27.95-25 28.35-25.35 31.9-24.95 44.65-24.95 48.3-25.35 48.7-25Q48.75-22.8 48.95-20.65 49.15-18.5 49.25-17.9L49.25-17.9 46.95-17.75Q46.55-20.35 46.02-21.33 45.5-22.3 44.47-22.55 43.45-22.8 40.55-22.9L40.55-22.9Q40.3-20.5 40.1-14.93 39.9-9.35 39.9-4.65L39.9-4.65Q39.9-3.2 40.45-2.6 41-2 42.25-2L42.25-2Q43.15-2 43.72-2.05 44.3-2.1 44.45-2.1L44.45-2.1 44.6-1.95 44.25 0.15Q43.55 0.15 41.65 0.08 39.75 0 37.95 0L37.95 0Q36.15 0 34.4 0.08 32.65 0.15 32 0.2L32 0.2ZM63.15 0.35L63 0.1 63.15-1.7Q65.25-1.85 65.97-2.15 66.7-2.45 66.7-3.15L66.7-3.15Q66.7-3.95 66.35-4.85L66.35-4.85 65.15-8.7Q64.15-8.75 61-8.75L61-8.75Q59.55-8.75 56.7-8.45L56.7-8.45 55.3-4.75Q54.95-3.6 54.95-3.35L54.95-3.35Q54.95-2.55 55.5-2.2 56.05-1.85 57.3-1.85L57.3-1.85 59.45-1.85 59.6-1.65 59.3 0.25Q58.8 0.2 57.02 0.1 55.25 0 53.55 0L53.55 0Q51.95 0 50.67 0.05 49.4 0.1 48.95 0.1L48.95 0.1 49.25-1.95Q50.35-2.1 51-2.73 51.65-3.35 52.3-4.85L52.3-4.85 60.15-24.7 63.7-25.35 64.05-25.3Q64.05-25.1 66.32-17.4 68.6-9.7 70.4-4.65L70.4-4.65Q70.9-3.2 71.67-2.63 72.45-2.05 74.15-1.9L74.15-1.9 74.25-1.7 74 0.1Q73.5 0.1 72.15 0.05 70.8 0 69.45 0L69.45 0Q67.4 0 65.55 0.15 63.7 0.3 63.15 0.35L63.15 0.35ZM57.5-10.8L60.9-10.8Q62.65-10.8 64.55-11L64.55-11 61.5-20.7 61.15-20.7 57.5-10.8ZM95.99 0.6Q94.89 0.6 93.74-0.38 92.59-1.35 91.64-3.05L91.64-3.05 87.44-10.4 84.19-10.4 84.09-5.05Q84.09-3.6 84.29-2.98 84.49-2.35 85.07-2.15 85.64-1.95 87.04-1.9L87.04-1.9 87.14-1.75 86.74 0.15Q86.14 0.1 84.57 0.08 82.99 0.05 81.39 0.05L81.39 0.05Q79.84 0.05 78.69 0.1 77.54 0.15 77.14 0.2L77.14 0.2 77.49-1.85Q79.34-2.1 79.94-2.7 80.54-3.3 80.54-4.95L80.54-4.95 80.59-20.9Q80.59-22.1 80.29-22.53 79.99-22.95 79.14-22.95L79.14-22.95 77.74-22.9 77.59-23.1 77.89-25Q78.39-25 79.79-24.95 81.19-24.9 82.59-24.9L82.59-24.9Q84.04-24.9 85.69-24.98 87.34-25.05 87.94-25.05L87.94-25.05Q91.99-25.05 94.29-23.38 96.59-21.7 96.59-18.75L96.59-18.75Q96.59-16.45 95.04-14.5 93.49-12.55 90.69-11.3L90.69-11.3 94.94-4.9Q96.14-3.1 97.24-2.35 98.34-1.6 99.89-1.6L99.89-1.6 100.09-1.35 99.84 0.2 95.99 0.6ZM88.34-12.6Q89.29-13 90.02-13.38 90.74-13.75 91.64-14.95 92.54-16.15 92.54-18.05L92.54-18.05Q92.54-22.9 85.39-22.9L85.39-22.9Q84.99-22.9 84.84-22.73 84.69-22.55 84.69-22L84.69-22Q84.29-15.9 84.29-13L84.29-13 88.34-12.6ZM107.04-20.85Q107.04-22.1 106.74-22.53 106.44-22.95 105.54-22.95L105.54-22.95 104.19-22.9 104.04-23.1 104.34-25Q104.89-25 106.34-24.95 107.79-24.9 109.14-24.9L109.14-24.9Q110.24-24.9 111.79-25.05 113.34-25.2 113.84-25.25L113.84-25.25 113.69-23.2Q112.14-22.95 111.59-22.48 111.04-22 110.99-20.9L110.99-20.9 110.54-4.65Q110.49-3.05 110.87-2.5 111.24-1.95 112.29-1.95L112.29-1.95Q112.89-1.95 113.39-2 113.89-2.05 114.04-2.1L114.04-2.1 114.14-1.9 113.79 0.1Q113.24 0.1 111.69 0.05 110.14 0 108.54 0L108.54 0 103.59 0.05 103.99-1.95Q105.89-2.15 106.44-2.7 106.99-3.25 106.99-4.95L106.99-4.95 107.04-20.85ZM111.69-12.95L118.69-19.9Q119.89-21.05 119.89-21.85L119.89-21.85Q119.89-22.9 117.44-23.05L117.44-23.05 117.34-23.25 117.64-25.15Q118.14-25.1 119.74-25 121.34-24.9 122.29-24.9L122.29-24.9Q123.59-24.9 124.77-24.95 125.94-25 126.34-25.05L126.34-25.05 126.54-24.75 126.24-22.95Q125.14-22.65 124.17-21.93 123.19-21.2 121.34-19.3L121.34-19.3 115.34-13.35 121.84-5.05Q123.29-3.25 124.42-2.5 125.54-1.75 126.94-1.7L126.94-1.7 127.14-1.45 126.89 0.1Q126.39 0.15 125.17 0.33 123.94 0.5 123.14 0.55L123.14 0.55Q120.94 0.55 118.54-2.75L118.54-2.75 111.64-12.3 111.69-12.95ZM143.89 0.6Q143.14 0.5 140.71 0.25 138.29 0 136.69 0L136.69 0Q135.14 0 133.31 0.25 131.49 0.5 130.94 0.6L130.94 0.6 131.24-1.7Q133.54-2.15 134.34-3.03 135.14-3.9 135.14-6L135.14-6 135.19-27Q135.19-28.6 134.81-29.15 134.44-29.7 133.34-29.7L133.34-29.7Q132.84-29.7 132.34-29.65 131.84-29.6 131.64-29.6L131.64-29.6 131.54-29.8 131.89-32Q132.44-31.95 133.99-31.9 135.54-31.85 137.14-31.85L137.14-31.85Q139.29-31.85 141.59-31.93 143.89-32 144.74-32.05L144.74-32.05Q149.54-32.05 153.29-30.18 157.04-28.3 159.11-24.9 161.19-21.5 161.19-17.1L161.19-17.1Q161.19-12.2 158.89-8.15 156.59-4.1 152.64-1.75 148.69 0.6 143.89 0.6L143.89 0.6ZM141.29-29.6Q140.24-29.6 139.89-29.38 139.54-29.15 139.49-28.5L139.49-28.5Q138.74-9.25 138.74-6.55L138.74-6.55Q138.74-4.65 139.26-3.7 139.79-2.75 141.11-2.35 142.44-1.95 145.04-1.95L145.04-1.95Q150.44-1.95 153.54-5.68 156.64-9.4 156.64-15.9L156.64-15.9Q156.64-22.5 152.66-26.05 148.69-29.6 141.29-29.6L141.29-29.6ZM165.89 0.4L166.14-1.7Q167.99-1.9 168.64-2.6 169.29-3.3 169.29-5L169.29-5 169.34-20.85Q169.34-22.1 169.04-22.53 168.74-22.95 167.84-22.95L167.84-22.95 166.49-22.9 166.39-23.1 166.69-25Q167.29-25 169.04-24.95 170.79-24.9 172.84-24.9L172.84-24.9Q181.19-24.9 185.19-25.35L185.19-25.35 185.34-25.1Q185.24-24.55 184.89-22.6 184.54-20.65 184.39-18.4L184.39-18.4 181.99-18.2Q181.99-18.4 182.04-18.88 182.09-19.35 182.09-19.85L182.09-19.85Q182.09-21.15 181.71-21.68 181.34-22.2 180.16-22.38 178.99-22.55 176.09-22.55L176.09-22.55Q174.74-22.55 174.24-22.48 173.74-22.4 173.59-22.13 173.44-21.85 173.39-21.1L173.39-21.1 173.09-14 177.19-13.95Q178.09-13.95 179.84-14.13 181.59-14.3 182.14-14.35L182.14-14.35 182.34-14.1 181.74-11.5Q181.19-11.5 179.56-11.55 177.94-11.6 176.14-11.6L176.14-11.6Q174.74-11.6 172.99-11.35L172.99-11.35Q172.84-7.55 172.84-4.5L172.84-4.5Q172.84-3.35 173.01-2.9 173.19-2.45 173.81-2.3 174.44-2.15 175.89-2.15L175.89-2.15Q179.14-2.15 180.54-2.45 181.94-2.75 182.51-3.68 183.09-4.6 183.44-6.85L183.44-6.85 185.64-7.05 185.84-6.8Q185.69-6.25 185.31-4.23 184.94-2.2 184.74 0L184.74 0 184.44 0.25Q183.09 0.2 178.84 0.1 174.59 0 171.94 0L171.94 0Q169.89 0 168.14 0.18 166.39 0.35 165.89 0.4L165.89 0.4ZM196.28-24.9Q198.18-24.9 199.88-25.03 201.58-25.15 202.03-25.2L202.03-25.2 202.13-24.9 201.98-23.25Q200.43-23.2 199.71-22.88 198.98-22.55 198.98-21.95L198.98-21.95Q198.98-21.45 200.06-19.83 201.13-18.2 203.38-15L203.38-15 204.93-16.95Q205.18-17.3 206.26-18.65 207.33-20 207.88-20.88 208.43-21.75 208.43-22.1L208.43-22.1Q208.43-22.6 207.88-22.85 207.33-23.1 206.13-23.2L206.13-23.2 206.03-23.35 206.28-25.15Q206.53-25.15 208.21-25.03 209.88-24.9 211.03-24.9L211.03-24.9Q212.38-24.9 213.58-24.95 214.78-25 215.18-25.05L215.18-25.05 215.33-24.75 215.08-23.05Q213.28-22.6 212.28-21.83 211.28-21.05 209.53-18.95L209.53-18.95 204.73-13.05 210.43-5.25Q211.58-3.7 212.86-2.93 214.13-2.15 215.98-2L215.98-2 216.08-1.85 215.78 0.1Q215.23 0.1 213.73 0.05 212.23 0 210.63 0L210.63 0Q209.23 0 206.98 0.13 204.73 0.25 204.03 0.3L204.03 0.3 203.88 0 204.03-1.75Q205.58-1.85 206.31-2.13 207.03-2.4 207.03-3.05L207.03-3.05Q207.03-3.35 206.81-3.78 206.58-4.2 206.23-4.65L206.23-4.65 201.98-10.6 198.48-6.2Q197.38-4.8 196.98-4.15 196.58-3.5 196.58-3L196.58-3Q196.58-2 198.83-1.85L198.83-1.85 198.98-1.65 198.68 0.25Q198.18 0.2 196.56 0.1 194.93 0 193.98 0L193.98 0Q192.63 0 191.41 0.05 190.18 0.1 189.73 0.15L189.73 0.15 189.58-0.15 189.83-2Q191.43-2.45 192.88-3.7 194.33-4.95 196.33-7.3L196.33-7.3 200.73-12.55 195.58-19.75Q194.53-21.2 193.23-21.98 191.93-22.75 190.08-23L190.08-23 189.98-23.2 190.23-25Q190.88-25 192.66-24.95 194.43-24.9 196.28-24.9L196.28-24.9Z" opacity="1" transform="matrix(1,0,0,1,0,0)" fill="white" class="wordmark-text-0" id="SvgjsPath1002"></path></svg></g></svg></g><g transform="matrix(1,0,0,1,213.71584939044325,75.76978364893786)"><svg viewBox="0 0 181.80415060955673 56.82384371395075" height="56.82384371395075" width="181.80415060955673"><g transform="matrix(1,0,0,1,0,0)"><svg width="181.80415060955673" viewBox="2.3 -25.35 113.09 35.35" height="56.82384371395075" data-palette-color="url(#f56f8f03-cba9-4e6d-97a7-4de5f5828ab8)"><path d="M2.3-6.45L5.9-7.65Q6.2-6.15 7-5.18 7.8-4.2 9.08-3.7 10.35-3.2 12.05-3.2L12.05-3.2Q14.7-3.2 16.07-4.23 17.45-5.25 17.45-6.8L17.45-6.8Q17.45-8.1 16.63-8.9 15.8-9.7 14.45-10.23 13.1-10.75 11.45-11.15L11.45-11.15Q10.15-11.45 8.65-11.88 7.15-12.3 5.8-13.05 4.45-13.8 3.6-15 2.75-16.2 2.75-18.15L2.75-18.15Q2.75-20.3 3.93-21.93 5.1-23.55 7.18-24.45 9.25-25.35 11.95-25.35L11.95-25.35Q15.05-25.35 17.48-24 19.9-22.65 20.85-19.8L20.85-19.8 17.35-18.6Q17-19.9 16.07-20.6 15.15-21.3 14.03-21.55 12.9-21.8 11.8-21.8L11.8-21.8Q9.55-21.8 8.18-20.93 6.8-20.05 6.8-18.3L6.8-18.3Q6.8-17.35 7.25-16.73 7.7-16.1 8.5-15.7 9.3-15.3 10.4-15.03 11.5-14.75 12.8-14.4L12.8-14.4Q14.25-14.05 15.75-13.53 17.25-13 18.55-12.18 19.85-11.35 20.68-10.08 21.5-8.8 21.5-6.9L21.5-6.9Q21.5-4.7 20.3-3.08 19.1-1.45 16.98-0.55 14.85 0.35 12.05 0.35L12.05 0.35Q8.2 0.35 5.68-1.38 3.15-3.1 2.3-6.45L2.3-6.45ZM42.65-19.4L36.3 0 32.9 0 25.05-25 28.85-25 34.6-4.65 41.05-25 44.45-25 50.8-4.7 56.5-25 60.2-25 52.4 0 48.95 0 42.65-19.4ZM83.9 0L80.45 0 80.15-4.5Q79.1-2.2 77.05-0.93 75 0.35 71.85 0.35L71.85 0.35Q69.15 0.35 67.25-0.5 65.35-1.35 64.32-2.93 63.3-4.5 63.3-6.65L63.3-6.65Q63.3-9.8 65.65-11.83 68-13.85 72.45-14.3L72.45-14.3 80.15-15.15 80.15-17.15Q80.15-19.25 78.6-20.53 77.05-21.8 74.4-21.8L74.4-21.8Q71.8-21.8 70.07-20.6 68.35-19.4 67.7-17.15L67.7-17.15 64.3-18.35Q65.3-21.65 67.97-23.5 70.65-25.35 74.5-25.35L74.5-25.35Q78.95-25.35 81.42-23.08 83.9-20.8 83.9-16.9L83.9-16.9 83.9 0ZM80.15-11.15L80.15-11.95 72.4-11.05Q69.9-10.75 68.6-9.68 67.3-8.6 67.3-6.85L67.3-6.85Q67.3-5.1 68.57-4.05 69.85-3 72.25-3L72.25-3Q75-3 76.75-4.1 78.5-5.2 79.32-7.08 80.15-8.95 80.15-11.15L80.15-11.15ZM94.54-5.05L94.54-5.05 94.94-5.1 94.94 10 91.19 10 91.19-25 94.64-25 94.89-20.35Q96.04-22.45 98.29-23.9 100.54-25.35 103.94-25.35L103.94-25.35Q107.19-25.35 109.79-23.78 112.39-22.2 113.89-19.33 115.39-16.45 115.39-12.5L115.39-12.5Q115.39-8.6 113.97-5.73 112.54-2.85 109.97-1.25 107.39 0.35 103.94 0.35L103.94 0.35Q100.34 0.35 97.99-1.2 95.64-2.75 94.54-5.05ZM111.34-12.5L111.34-12.5Q111.34-16.8 109.12-19.33 106.89-21.85 103.14-21.85L103.14-21.85Q100.79-21.85 98.92-20.75 97.04-19.65 95.99-17.55 94.94-15.45 94.94-12.5L94.94-12.5Q94.94-9.6 95.99-7.5 97.04-5.4 98.92-4.28 100.79-3.15 103.14-3.15L103.14-3.15Q106.89-3.15 109.12-5.68 111.34-8.2 111.34-12.5Z" opacity="1" transform="matrix(1,0,0,1,0,0)" fill="black" class="slogan-text-1" id="SvgjsPath1001"></path></svg></g></svg></g></svg></g></svg></g><g transform="matrix(1,0,0,1,429.99025277838194,0)"><svg viewBox="0 0 192.41807977473673 183.2443930155121" height="183.2443930155121" width="192.41807977473673"><g><svg xmlns="http://www.w3.org/2000/svg" xmlns:xlink="http://www.w3.org/1999/xlink" version="1.1" x="0" y="0" viewBox="7.8 9.8 83.9 79.9" enable-background="new 0 0 100 100" xml:space="preserve" height="183.2443930155121" width="192.41807977473673" class="icon-icon-0" data-fill-palette-color="accent" id="SvgjsSvg1000"><rect x="7.8" y="9.8" width="35" height="35" fill="black"></rect><rect x="56.7" y="54.7" width="35" height="35" fill="black"></rect><path d="M33.3 61.4H40L29.4 50.9 18.8 61.4l6.7 0C26.5 73.5 36.7 83 49 83v-7.8C41 75.3 34.3 69.2 33.3 61.4z" fill="black"></path><path d="M66 38.9h-6.6l10.6 10.6 10.6-10.6-6.7 0c-1-12.1-11.2-21.6-23.6-21.6v7.8C58.3 25.1 65 31.1 66 38.9z" fill="black"></path></svg></g></svg></g></svg></g><defs><mask></mask></defs></svg><rect width="395.52" height="116.44577769098213" fill="black" stroke="none" visibility="hidden"></rect></g></mask><linearGradient x1="0" x2="1" y1="0.578" y2="0.595" id="4de9f1c3-0846-4e20-8de1-6042ed461435"><stop stop-color="#6ee2f5" offset="0"></stop><stop stop-color="#6454f0" offset="1"></stop></linearGradient><rect width="395.52" height="116.44577769098213" fill="url(#4de9f1c3-0846-4e20-8de1-6042ed461435)" mask="url(#184b1b6d-b304-43da-bb6c-e521b8fa70c6)" data-fill-palette-color="primary"></rect><mask id="2fad401c-ee20-476f-a518-a9376026a210"><g id="SvgjsG1018"><svg viewBox="0 0 395.52 116.44577769098213" height="116.44577769098213" width="395.52"><g><svg viewBox="0 0 622.4083325531187 183.2443930155121" height="116.44577769098213" width="395.52"><g></g><g transform="matrix(1,0,0,1,0,25.32538282631174)"><svg viewBox="0 0 395.52 132.5936273628886" height="132.5936273628886" width="395.52"><g id="SvgjsG1017"><svg viewBox="0 0 395.52 132.5936273628886" height="132.5936273628886" width="395.52" id="SvgjsSvg1016"><g><svg viewBox="0 0 395.52 61.2986447831184" height="61.2986447831184" width="395.52"><g transform="matrix(1,0,0,1,0,0)"><svg width="395.52" viewBox="2.85 -32.45 213.23000000000002 33.050000000000004" height="61.2986447831184" data-palette-color="url(#4de9f1c3-0846-4e20-8de1-6042ed461435)"></svg></g></svg></g><g transform="matrix(1,0,0,1,213.71584939044325,75.76978364893786)"><svg viewBox="0 0 181.80415060955673 56.82384371395075" height="56.82384371395075" width="181.80415060955673"><g transform="matrix(1,0,0,1,0,0)"><svg width="181.80415060955673" viewBox="2.3 -25.35 113.09 35.35" height="56.82384371395075" data-palette-color="url(#f56f8f03-cba9-4e6d-97a7-4de5f5828ab8)"><path d="M2.3-6.45L5.9-7.65Q6.2-6.15 7-5.18 7.8-4.2 9.08-3.7 10.35-3.2 12.05-3.2L12.05-3.2Q14.7-3.2 16.07-4.23 17.45-5.25 17.45-6.8L17.45-6.8Q17.45-8.1 16.63-8.9 15.8-9.7 14.45-10.23 13.1-10.75 11.45-11.15L11.45-11.15Q10.15-11.45 8.65-11.88 7.15-12.3 5.8-13.05 4.45-13.8 3.6-15 2.75-16.2 2.75-18.15L2.75-18.15Q2.75-20.3 3.93-21.93 5.1-23.55 7.18-24.45 9.25-25.35 11.95-25.35L11.95-25.35Q15.05-25.35 17.48-24 19.9-22.65 20.85-19.8L20.85-19.8 17.35-18.6Q17-19.9 16.07-20.6 15.15-21.3 14.03-21.55 12.9-21.8 11.8-21.8L11.8-21.8Q9.55-21.8 8.18-20.93 6.8-20.05 6.8-18.3L6.8-18.3Q6.8-17.35 7.25-16.73 7.7-16.1 8.5-15.7 9.3-15.3 10.4-15.03 11.5-14.75 12.8-14.4L12.8-14.4Q14.25-14.05 15.75-13.53 17.25-13 18.55-12.18 19.85-11.35 20.68-10.08 21.5-8.8 21.5-6.9L21.5-6.9Q21.5-4.7 20.3-3.08 19.1-1.45 16.98-0.55 14.85 0.35 12.05 0.35L12.05 0.35Q8.2 0.35 5.68-1.38 3.15-3.1 2.3-6.45L2.3-6.45ZM42.65-19.4L36.3 0 32.9 0 25.05-25 28.85-25 34.6-4.65 41.05-25 44.45-25 50.8-4.7 56.5-25 60.2-25 52.4 0 48.95 0 42.65-19.4ZM83.9 0L80.45 0 80.15-4.5Q79.1-2.2 77.05-0.93 75 0.35 71.85 0.35L71.85 0.35Q69.15 0.35 67.25-0.5 65.35-1.35 64.32-2.93 63.3-4.5 63.3-6.65L63.3-6.65Q63.3-9.8 65.65-11.83 68-13.85 72.45-14.3L72.45-14.3 80.15-15.15 80.15-17.15Q80.15-19.25 78.6-20.53 77.05-21.8 74.4-21.8L74.4-21.8Q71.8-21.8 70.07-20.6 68.35-19.4 67.7-17.15L67.7-17.15 64.3-18.35Q65.3-21.65 67.97-23.5 70.65-25.35 74.5-25.35L74.5-25.35Q78.95-25.35 81.42-23.08 83.9-20.8 83.9-16.9L83.9-16.9 83.9 0ZM80.15-11.15L80.15-11.95 72.4-11.05Q69.9-10.75 68.6-9.68 67.3-8.6 67.3-6.85L67.3-6.85Q67.3-5.1 68.57-4.05 69.85-3 72.25-3L72.25-3Q75-3 76.75-4.1 78.5-5.2 79.32-7.08 80.15-8.95 80.15-11.15L80.15-11.15ZM94.54-5.05L94.54-5.05 94.94-5.1 94.94 10 91.19 10 91.19-25 94.64-25 94.89-20.35Q96.04-22.45 98.29-23.9 100.54-25.35 103.94-25.35L103.94-25.35Q107.19-25.35 109.79-23.78 112.39-22.2 113.89-19.33 115.39-16.45 115.39-12.5L115.39-12.5Q115.39-8.6 113.97-5.73 112.54-2.85 109.97-1.25 107.39 0.35 103.94 0.35L103.94 0.35Q100.34 0.35 97.99-1.2 95.64-2.75 94.54-5.05ZM111.34-12.5L111.34-12.5Q111.34-16.8 109.12-19.33 106.89-21.85 103.14-21.85L103.14-21.85Q100.79-21.85 98.92-20.75 97.04-19.65 95.99-17.55 94.94-15.45 94.94-12.5L94.94-12.5Q94.94-9.6 95.99-7.5 97.04-5.4 98.92-4.28 100.79-3.15 103.14-3.15L103.14-3.15Q106.89-3.15 109.12-5.68 111.34-8.2 111.34-12.5Z" opacity="1" transform="matrix(1,0,0,1,0,0)" fill="white" class="slogan-text-1" id="SvgjsPath1015"></path></svg></g></svg></g></svg></g></svg></g><g transform="matrix(1,0,0,1,429.99025277838194,0)"><svg viewBox="0 0 192.41807977473673 183.2443930155121" height="183.2443930155121" width="192.41807977473673"><g><svg xmlns="http://www.w3.org/2000/svg" xmlns:xlink="http://www.w3.org/1999/xlink" version="1.1" x="0" y="0" viewBox="7.8 9.8 83.9 79.9" enable-background="new 0 0 100 100" xml:space="preserve" height="183.2443930155121" width="192.41807977473673" class="icon-icon-0" data-fill-palette-color="accent" id="SvgjsSvg1014"><rect x="7.8" y="9.8" width="35" height="35" fill="black"></rect><rect x="56.7" y="54.7" width="35" height="35" fill="black"></rect><path d="M33.3 61.4H40L29.4 50.9 18.8 61.4l6.7 0C26.5 73.5 36.7 83 49 83v-7.8C41 75.3 34.3 69.2 33.3 61.4z" fill="black"></path><path d="M66 38.9h-6.6l10.6 10.6 10.6-10.6-6.7 0c-1-12.1-11.2-21.6-23.6-21.6v7.8C58.3 25.1 65 31.1 66 38.9z" fill="black"></path></svg></g></svg></g></svg></g><defs><mask></mask></defs><mask><g id="SvgjsG1013"><svg viewBox="0 0 395.52 116.44577769098213" height="116.44577769098213" width="395.52"><g><svg viewBox="0 0 622.4083325531187 183.2443930155121" height="116.44577769098213" width="395.52"><g><rect width="5.527975046743033" height="159.11235283546634" x="409.99113886581944" y="12.066020090022874" fill="black" opacity="1" stroke-width="0" stroke="transparent" fill-opacity="1" class="rect-qz-0" rx="1%" id="SvgjsRect1012" data-palette-color="url(#4de9f1c3-0846-4e20-8de1-6042ed461435)"></rect></g><g transform="matrix(1,0,0,1,0,25.32538282631174)"><svg viewBox="0 0 395.52 132.5936273628886" height="132.5936273628886" width="395.52"><g id="SvgjsG1011"><svg viewBox="0 0 395.52 132.5936273628886" height="132.5936273628886" width="395.52" id="SvgjsSvg1010"><g><svg viewBox="0 0 395.52 61.2986447831184" height="61.2986447831184" width="395.52"><g transform="matrix(1,0,0,1,0,0)"><svg width="395.52" viewBox="2.85 -32.45 213.23000000000002 33.050000000000004" height="61.2986447831184" data-palette-color="url(#4de9f1c3-0846-4e20-8de1-6042ed461435)"><path d="M10.95 0.6Q8.85 0.6 7.1 0.23 5.35-0.15 4.23-0.6 3.1-1.05 3.1-1.1L3.1-1.1 2.85-1.6Q2.9-1.9 3.05-3.1 3.2-4.3 3.33-6.23 3.45-8.15 3.45-10.3L3.45-10.3 5.7-10.55Q5.7-6.8 6.2-5 6.7-3.2 8.05-2.53 9.4-1.85 12.2-1.85L12.2-1.85Q15.35-1.85 17.25-3.33 19.15-4.8 19.15-7.35L19.15-7.35Q19.15-8.85 18.13-10.05 17.1-11.25 15.7-12.1 14.3-12.95 11.55-14.4L11.55-14.4Q8.95-15.75 7.3-16.88 5.65-18 4.53-19.55 3.4-21.1 3.4-23.15L3.4-23.15Q3.4-25.75 4.93-27.88 6.45-30 9.08-31.23 11.7-32.45 14.9-32.45L14.9-32.45Q16.9-32.45 18.6-32.18 20.3-31.9 21.3-31.6 22.3-31.3 22.55-31.2L22.55-31.2 22.7-30.9Q22.65-30.6 22.45-29.5 22.25-28.4 22-26.45 21.75-24.5 21.6-22.45L21.6-22.45 19.65-22.25 19.35-22.5Q19.4-22.7 19.45-23.43 19.5-24.15 19.5-25.1L19.5-25.1Q19.5-27.75 18.2-28.75 16.9-29.75 13.55-29.75L13.55-29.75Q10.8-29.75 9.03-28.38 7.25-27 7.25-24.95L7.25-24.95Q7.25-22.95 8.97-21.48 10.7-20 14.05-18.25L14.05-18.25Q17.3-16.6 19-15.53 20.7-14.45 22-12.85 23.3-11.25 23.3-9.15L23.3-9.15Q23.3-6.35 21.73-4.13 20.15-1.9 17.35-0.65 14.55 0.6 10.95 0.6L10.95 0.6ZM32 0.2L32.35-1.8Q34.35-1.95 35.17-2.3 36-2.65 36.22-3.48 36.45-4.3 36.45-6.35L36.45-6.35 36.45-22.9Q33.3-22.8 32.2-22.55 31.1-22.3 30.57-21.38 30.05-20.45 29.7-17.9L29.7-17.9 27.35-17.75Q27.45-18.4 27.67-20.63 27.9-22.85 27.95-25L27.95-25 28.35-25.35 31.9-24.95 44.65-24.95 48.3-25.35 48.7-25Q48.75-22.8 48.95-20.65 49.15-18.5 49.25-17.9L49.25-17.9 46.95-17.75Q46.55-20.35 46.02-21.33 45.5-22.3 44.47-22.55 43.45-22.8 40.55-22.9L40.55-22.9Q40.3-20.5 40.1-14.93 39.9-9.35 39.9-4.65L39.9-4.65Q39.9-3.2 40.45-2.6 41-2 42.25-2L42.25-2Q43.15-2 43.72-2.05 44.3-2.1 44.45-2.1L44.45-2.1 44.6-1.95 44.25 0.15Q43.55 0.15 41.65 0.08 39.75 0 37.95 0L37.95 0Q36.15 0 34.4 0.08 32.65 0.15 32 0.2L32 0.2ZM63.15 0.35L63 0.1 63.15-1.7Q65.25-1.85 65.97-2.15 66.7-2.45 66.7-3.15L66.7-3.15Q66.7-3.95 66.35-4.85L66.35-4.85 65.15-8.7Q64.15-8.75 61-8.75L61-8.75Q59.55-8.75 56.7-8.45L56.7-8.45 55.3-4.75Q54.95-3.6 54.95-3.35L54.95-3.35Q54.95-2.55 55.5-2.2 56.05-1.85 57.3-1.85L57.3-1.85 59.45-1.85 59.6-1.65 59.3 0.25Q58.8 0.2 57.02 0.1 55.25 0 53.55 0L53.55 0Q51.95 0 50.67 0.05 49.4 0.1 48.95 0.1L48.95 0.1 49.25-1.95Q50.35-2.1 51-2.73 51.65-3.35 52.3-4.85L52.3-4.85 60.15-24.7 63.7-25.35 64.05-25.3Q64.05-25.1 66.32-17.4 68.6-9.7 70.4-4.65L70.4-4.65Q70.9-3.2 71.67-2.63 72.45-2.05 74.15-1.9L74.15-1.9 74.25-1.7 74 0.1Q73.5 0.1 72.15 0.05 70.8 0 69.45 0L69.45 0Q67.4 0 65.55 0.15 63.7 0.3 63.15 0.35L63.15 0.35ZM57.5-10.8L60.9-10.8Q62.65-10.8 64.55-11L64.55-11 61.5-20.7 61.15-20.7 57.5-10.8ZM95.99 0.6Q94.89 0.6 93.74-0.38 92.59-1.35 91.64-3.05L91.64-3.05 87.44-10.4 84.19-10.4 84.09-5.05Q84.09-3.6 84.29-2.98 84.49-2.35 85.07-2.15 85.64-1.95 87.04-1.9L87.04-1.9 87.14-1.75 86.74 0.15Q86.14 0.1 84.57 0.08 82.99 0.05 81.39 0.05L81.39 0.05Q79.84 0.05 78.69 0.1 77.54 0.15 77.14 0.2L77.14 0.2 77.49-1.85Q79.34-2.1 79.94-2.7 80.54-3.3 80.54-4.95L80.54-4.95 80.59-20.9Q80.59-22.1 80.29-22.53 79.99-22.95 79.14-22.95L79.14-22.95 77.74-22.9 77.59-23.1 77.89-25Q78.39-25 79.79-24.95 81.19-24.9 82.59-24.9L82.59-24.9Q84.04-24.9 85.69-24.98 87.34-25.05 87.94-25.05L87.94-25.05Q91.99-25.05 94.29-23.38 96.59-21.7 96.59-18.75L96.59-18.75Q96.59-16.45 95.04-14.5 93.49-12.55 90.69-11.3L90.69-11.3 94.94-4.9Q96.14-3.1 97.24-2.35 98.34-1.6 99.89-1.6L99.89-1.6 100.09-1.35 99.84 0.2 95.99 0.6ZM88.34-12.6Q89.29-13 90.02-13.38 90.74-13.75 91.64-14.95 92.54-16.15 92.54-18.05L92.54-18.05Q92.54-22.9 85.39-22.9L85.39-22.9Q84.99-22.9 84.84-22.73 84.69-22.55 84.69-22L84.69-22Q84.29-15.9 84.29-13L84.29-13 88.34-12.6ZM107.04-20.85Q107.04-22.1 106.74-22.53 106.44-22.95 105.54-22.95L105.54-22.95 104.19-22.9 104.04-23.1 104.34-25Q104.89-25 106.34-24.95 107.79-24.9 109.14-24.9L109.14-24.9Q110.24-24.9 111.79-25.05 113.34-25.2 113.84-25.25L113.84-25.25 113.69-23.2Q112.14-22.95 111.59-22.48 111.04-22 110.99-20.9L110.99-20.9 110.54-4.65Q110.49-3.05 110.87-2.5 111.24-1.95 112.29-1.95L112.29-1.95Q112.89-1.95 113.39-2 113.89-2.05 114.04-2.1L114.04-2.1 114.14-1.9 113.79 0.1Q113.24 0.1 111.69 0.05 110.14 0 108.54 0L108.54 0 103.59 0.05 103.99-1.95Q105.89-2.15 106.44-2.7 106.99-3.25 106.99-4.95L106.99-4.95 107.04-20.85ZM111.69-12.95L118.69-19.9Q119.89-21.05 119.89-21.85L119.89-21.85Q119.89-22.9 117.44-23.05L117.44-23.05 117.34-23.25 117.64-25.15Q118.14-25.1 119.74-25 121.34-24.9 122.29-24.9L122.29-24.9Q123.59-24.9 124.77-24.95 125.94-25 126.34-25.05L126.34-25.05 126.54-24.75 126.24-22.95Q125.14-22.65 124.17-21.93 123.19-21.2 121.34-19.3L121.34-19.3 115.34-13.35 121.84-5.05Q123.29-3.25 124.42-2.5 125.54-1.75 126.94-1.7L126.94-1.7 127.14-1.45 126.89 0.1Q126.39 0.15 125.17 0.33 123.94 0.5 123.14 0.55L123.14 0.55Q120.94 0.55 118.54-2.75L118.54-2.75 111.64-12.3 111.69-12.95ZM143.89 0.6Q143.14 0.5 140.71 0.25 138.29 0 136.69 0L136.69 0Q135.14 0 133.31 0.25 131.49 0.5 130.94 0.6L130.94 0.6 131.24-1.7Q133.54-2.15 134.34-3.03 135.14-3.9 135.14-6L135.14-6 135.19-27Q135.19-28.6 134.81-29.15 134.44-29.7 133.34-29.7L133.34-29.7Q132.84-29.7 132.34-29.65 131.84-29.6 131.64-29.6L131.64-29.6 131.54-29.8 131.89-32Q132.44-31.95 133.99-31.9 135.54-31.85 137.14-31.85L137.14-31.85Q139.29-31.85 141.59-31.93 143.89-32 144.74-32.05L144.74-32.05Q149.54-32.05 153.29-30.18 157.04-28.3 159.11-24.9 161.19-21.5 161.19-17.1L161.19-17.1Q161.19-12.2 158.89-8.15 156.59-4.1 152.64-1.75 148.69 0.6 143.89 0.6L143.89 0.6ZM141.29-29.6Q140.24-29.6 139.89-29.38 139.54-29.15 139.49-28.5L139.49-28.5Q138.74-9.25 138.74-6.55L138.74-6.55Q138.74-4.65 139.26-3.7 139.79-2.75 141.11-2.35 142.44-1.95 145.04-1.95L145.04-1.95Q150.44-1.95 153.54-5.68 156.64-9.4 156.64-15.9L156.64-15.9Q156.64-22.5 152.66-26.05 148.69-29.6 141.29-29.6L141.29-29.6ZM165.89 0.4L166.14-1.7Q167.99-1.9 168.64-2.6 169.29-3.3 169.29-5L169.29-5 169.34-20.85Q169.34-22.1 169.04-22.53 168.74-22.95 167.84-22.95L167.84-22.95 166.49-22.9 166.39-23.1 166.69-25Q167.29-25 169.04-24.95 170.79-24.9 172.84-24.9L172.84-24.9Q181.19-24.9 185.19-25.35L185.19-25.35 185.34-25.1Q185.24-24.55 184.89-22.6 184.54-20.65 184.39-18.4L184.39-18.4 181.99-18.2Q181.99-18.4 182.04-18.88 182.09-19.35 182.09-19.85L182.09-19.85Q182.09-21.15 181.71-21.68 181.34-22.2 180.16-22.38 178.99-22.55 176.09-22.55L176.09-22.55Q174.74-22.55 174.24-22.48 173.74-22.4 173.59-22.13 173.44-21.85 173.39-21.1L173.39-21.1 173.09-14 177.19-13.95Q178.09-13.95 179.84-14.13 181.59-14.3 182.14-14.35L182.14-14.35 182.34-14.1 181.74-11.5Q181.19-11.5 179.56-11.55 177.94-11.6 176.14-11.6L176.14-11.6Q174.74-11.6 172.99-11.35L172.99-11.35Q172.84-7.55 172.84-4.5L172.84-4.5Q172.84-3.35 173.01-2.9 173.19-2.45 173.81-2.3 174.44-2.15 175.89-2.15L175.89-2.15Q179.14-2.15 180.54-2.45 181.94-2.75 182.51-3.68 183.09-4.6 183.44-6.85L183.44-6.85 185.64-7.05 185.84-6.8Q185.69-6.25 185.31-4.23 184.94-2.2 184.74 0L184.74 0 184.44 0.25Q183.09 0.2 178.84 0.1 174.59 0 171.94 0L171.94 0Q169.89 0 168.14 0.18 166.39 0.35 165.89 0.4L165.89 0.4ZM196.28-24.9Q198.18-24.9 199.88-25.03 201.58-25.15 202.03-25.2L202.03-25.2 202.13-24.9 201.98-23.25Q200.43-23.2 199.71-22.88 198.98-22.55 198.98-21.95L198.98-21.95Q198.98-21.45 200.06-19.83 201.13-18.2 203.38-15L203.38-15 204.93-16.95Q205.18-17.3 206.26-18.65 207.33-20 207.88-20.88 208.43-21.75 208.43-22.1L208.43-22.1Q208.43-22.6 207.88-22.85 207.33-23.1 206.13-23.2L206.13-23.2 206.03-23.35 206.28-25.15Q206.53-25.15 208.21-25.03 209.88-24.9 211.03-24.9L211.03-24.9Q212.38-24.9 213.58-24.95 214.78-25 215.18-25.05L215.18-25.05 215.33-24.75 215.08-23.05Q213.28-22.6 212.28-21.83 211.28-21.05 209.53-18.95L209.53-18.95 204.73-13.05 210.43-5.25Q211.58-3.7 212.86-2.93 214.13-2.15 215.98-2L215.98-2 216.08-1.85 215.78 0.1Q215.23 0.1 213.73 0.05 212.23 0 210.63 0L210.63 0Q209.23 0 206.98 0.13 204.73 0.25 204.03 0.3L204.03 0.3 203.88 0 204.03-1.75Q205.58-1.85 206.31-2.13 207.03-2.4 207.03-3.05L207.03-3.05Q207.03-3.35 206.81-3.78 206.58-4.2 206.23-4.65L206.23-4.65 201.98-10.6 198.48-6.2Q197.38-4.8 196.98-4.15 196.58-3.5 196.58-3L196.58-3Q196.58-2 198.83-1.85L198.83-1.85 198.98-1.65 198.68 0.25Q198.18 0.2 196.56 0.1 194.93 0 193.98 0L193.98 0Q192.63 0 191.41 0.05 190.18 0.1 189.73 0.15L189.73 0.15 189.58-0.15 189.83-2Q191.43-2.45 192.88-3.7 194.33-4.95 196.33-7.3L196.33-7.3 200.73-12.55 195.58-19.75Q194.53-21.2 193.23-21.98 191.93-22.75 190.08-23L190.08-23 189.98-23.2 190.23-25Q190.88-25 192.66-24.95 194.43-24.9 196.28-24.9L196.28-24.9Z" opacity="1" transform="matrix(1,0,0,1,0,0)" fill="black" class="wordmark-text-0" id="SvgjsPath1009"></path></svg></g></svg></g><g transform="matrix(1,0,0,1,213.71584939044325,75.76978364893786)"><svg viewBox="0 0 181.80415060955673 56.82384371395075" height="56.82384371395075" width="181.80415060955673"><g transform="matrix(1,0,0,1,0,0)"><svg width="181.80415060955673" viewBox="2.3 -25.35 113.09 35.35" height="56.82384371395075" data-palette-color="url(#f56f8f03-cba9-4e6d-97a7-4de5f5828ab8)"><path d="M2.3-6.45L5.9-7.65Q6.2-6.15 7-5.18 7.8-4.2 9.08-3.7 10.35-3.2 12.05-3.2L12.05-3.2Q14.7-3.2 16.07-4.23 17.45-5.25 17.45-6.8L17.45-6.8Q17.45-8.1 16.63-8.9 15.8-9.7 14.45-10.23 13.1-10.75 11.45-11.15L11.45-11.15Q10.15-11.45 8.65-11.88 7.15-12.3 5.8-13.05 4.45-13.8 3.6-15 2.75-16.2 2.75-18.15L2.75-18.15Q2.75-20.3 3.93-21.93 5.1-23.55 7.18-24.45 9.25-25.35 11.95-25.35L11.95-25.35Q15.05-25.35 17.48-24 19.9-22.65 20.85-19.8L20.85-19.8 17.35-18.6Q17-19.9 16.07-20.6 15.15-21.3 14.03-21.55 12.9-21.8 11.8-21.8L11.8-21.8Q9.55-21.8 8.18-20.93 6.8-20.05 6.8-18.3L6.8-18.3Q6.8-17.35 7.25-16.73 7.7-16.1 8.5-15.7 9.3-15.3 10.4-15.03 11.5-14.75 12.8-14.4L12.8-14.4Q14.25-14.05 15.75-13.53 17.25-13 18.55-12.18 19.85-11.35 20.68-10.08 21.5-8.8 21.5-6.9L21.5-6.9Q21.5-4.7 20.3-3.08 19.1-1.45 16.98-0.55 14.85 0.35 12.05 0.35L12.05 0.35Q8.2 0.35 5.68-1.38 3.15-3.1 2.3-6.45L2.3-6.45ZM42.65-19.4L36.3 0 32.9 0 25.05-25 28.85-25 34.6-4.65 41.05-25 44.45-25 50.8-4.7 56.5-25 60.2-25 52.4 0 48.95 0 42.65-19.4ZM83.9 0L80.45 0 80.15-4.5Q79.1-2.2 77.05-0.93 75 0.35 71.85 0.35L71.85 0.35Q69.15 0.35 67.25-0.5 65.35-1.35 64.32-2.93 63.3-4.5 63.3-6.65L63.3-6.65Q63.3-9.8 65.65-11.83 68-13.85 72.45-14.3L72.45-14.3 80.15-15.15 80.15-17.15Q80.15-19.25 78.6-20.53 77.05-21.8 74.4-21.8L74.4-21.8Q71.8-21.8 70.07-20.6 68.35-19.4 67.7-17.15L67.7-17.15 64.3-18.35Q65.3-21.65 67.97-23.5 70.65-25.35 74.5-25.35L74.5-25.35Q78.95-25.35 81.42-23.08 83.9-20.8 83.9-16.9L83.9-16.9 83.9 0ZM80.15-11.15L80.15-11.95 72.4-11.05Q69.9-10.75 68.6-9.68 67.3-8.6 67.3-6.85L67.3-6.85Q67.3-5.1 68.57-4.05 69.85-3 72.25-3L72.25-3Q75-3 76.75-4.1 78.5-5.2 79.32-7.08 80.15-8.95 80.15-11.15L80.15-11.15ZM94.54-5.05L94.54-5.05 94.94-5.1 94.94 10 91.19 10 91.19-25 94.64-25 94.89-20.35Q96.04-22.45 98.29-23.9 100.54-25.35 103.94-25.35L103.94-25.35Q107.19-25.35 109.79-23.78 112.39-22.2 113.89-19.33 115.39-16.45 115.39-12.5L115.39-12.5Q115.39-8.6 113.97-5.73 112.54-2.85 109.97-1.25 107.39 0.35 103.94 0.35L103.94 0.35Q100.34 0.35 97.99-1.2 95.64-2.75 94.54-5.05ZM111.34-12.5L111.34-12.5Q111.34-16.8 109.12-19.33 106.89-21.85 103.14-21.85L103.14-21.85Q100.79-21.85 98.92-20.75 97.04-19.65 95.99-17.55 94.94-15.45 94.94-12.5L94.94-12.5Q94.94-9.6 95.99-7.5 97.04-5.4 98.92-4.28 100.79-3.15 103.14-3.15L103.14-3.15Q106.89-3.15 109.12-5.68 111.34-8.2 111.34-12.5Z" opacity="1" transform="matrix(1,0,0,1,0,0)" fill="black" class="slogan-text-1" id="SvgjsPath1008"></path></svg></g></svg></g></svg></g></svg></g><g transform="matrix(1,0,0,1,429.99025277838194,0)"><svg viewBox="0 0 192.41807977473673 183.2443930155121" height="183.2443930155121" width="192.41807977473673"><g><svg xmlns="http://www.w3.org/2000/svg" xmlns:xlink="http://www.w3.org/1999/xlink" version="1.1" x="0" y="0" viewBox="7.8 9.8 83.9 79.9" enable-background="new 0 0 100 100" xml:space="preserve" height="183.2443930155121" width="192.41807977473673" class="icon-icon-0" data-fill-palette-color="accent" id="SvgjsSvg1007"><rect x="7.8" y="9.8" width="35" height="35" fill="black"></rect><rect x="56.7" y="54.7" width="35" height="35" fill="black"></rect><path d="M33.3 61.4H40L29.4 50.9 18.8 61.4l6.7 0C26.5 73.5 36.7 83 49 83v-7.8C41 75.3 34.3 69.2 33.3 61.4z" fill="black"></path><path d="M66 38.9h-6.6l10.6 10.6 10.6-10.6-6.7 0c-1-12.1-11.2-21.6-23.6-21.6v7.8C58.3 25.1 65 31.1 66 38.9z" fill="black"></path></svg></g></svg></g></svg></g><defs><mask></mask></defs></svg><rect width="395.52" height="116.44577769098213" fill="black" stroke="none" visibility="hidden"></rect></g></mask></svg><rect width="395.52" height="116.44577769098213" fill="black" stroke="none" visibility="hidden"></rect></g></mask><linearGradient x1="0" x2="1" y1="0.578" y2="0.595" id="f56f8f03-cba9-4e6d-97a7-4de5f5828ab8"><stop stop-color="#6ee2f5" offset="0"></stop><stop stop-color="#6454f0" offset="1"></stop></linearGradient><rect width="395.52" height="116.44577769098213" fill="url(#f56f8f03-cba9-4e6d-97a7-4de5f5828ab8)" mask="url(#2fad401c-ee20-476f-a518-a9376026a210)" data-fill-palette-color="secondary"></rect><mask id="fd990503-8fc6-4ce1-b6b7-7358c4fd5068"><g id="SvgjsG1041"><svg viewBox="0 0 395.52 116.44577769098213" height="116.44577769098213" width="395.52"><g><svg viewBox="0 0 622.4083325531187 183.2443930155121" height="116.44577769098213" width="395.52"><g></g><g transform="matrix(1,0,0,1,0,25.32538282631174)"><svg viewBox="0 0 395.52 132.5936273628886" height="132.5936273628886" width="395.52"><g id="SvgjsG1040"><svg viewBox="0 0 395.52 132.5936273628886" height="132.5936273628886" width="395.52" id="SvgjsSvg1039"><g><svg viewBox="0 0 395.52 61.2986447831184" height="61.2986447831184" width="395.52"><g transform="matrix(1,0,0,1,0,0)"><svg width="395.52" viewBox="2.85 -32.45 213.23000000000002 33.050000000000004" height="61.2986447831184" data-palette-color="url(#4de9f1c3-0846-4e20-8de1-6042ed461435)"></svg></g></svg></g><g transform="matrix(1,0,0,1,213.71584939044325,75.76978364893786)"><svg viewBox="0 0 181.80415060955673 56.82384371395075" height="56.82384371395075" width="181.80415060955673"><g transform="matrix(1,0,0,1,0,0)"><svg width="181.80415060955673" viewBox="2.3 -25.35 113.09 35.35" height="56.82384371395075" data-palette-color="url(#f56f8f03-cba9-4e6d-97a7-4de5f5828ab8)"></svg></g></svg></g></svg></g></svg></g><g transform="matrix(1,0,0,1,429.99025277838194,0)"><svg viewBox="0 0 192.41807977473673 183.2443930155121" height="183.2443930155121" width="192.41807977473673"><g><svg xmlns="http://www.w3.org/2000/svg" xmlns:xlink="http://www.w3.org/1999/xlink" version="1.1" x="0" y="0" viewBox="7.8 9.8 83.9 79.9" enable-background="new 0 0 100 100" xml:space="preserve" height="183.2443930155121" width="192.41807977473673" class="icon-icon-0" data-fill-palette-color="accent" id="SvgjsSvg1038"><rect x="7.8" y="9.8" width="35" height="35" fill="white"></rect><rect x="56.7" y="54.7" width="35" height="35" fill="white"></rect><path d="M33.3 61.4H40L29.4 50.9 18.8 61.4l6.7 0C26.5 73.5 36.7 83 49 83v-7.8C41 75.3 34.3 69.2 33.3 61.4z" fill="white"></path><path d="M66 38.9h-6.6l10.6 10.6 10.6-10.6-6.7 0c-1-12.1-11.2-21.6-23.6-21.6v7.8C58.3 25.1 65 31.1 66 38.9z" fill="white"></path></svg></g></svg></g></svg></g><defs><mask></mask></defs><mask><g id="SvgjsG1037"><svg viewBox="0 0 395.52 116.44577769098213" height="116.44577769098213" width="395.52"><g><svg viewBox="0 0 622.4083325531187 183.2443930155121" height="116.44577769098213" width="395.52"><g><rect width="5.527975046743033" height="159.11235283546634" x="409.99113886581944" y="12.066020090022874" fill="black" opacity="1" stroke-width="0" stroke="transparent" fill-opacity="1" class="rect-qz-0" rx="1%" id="SvgjsRect1036" data-palette-color="url(#4de9f1c3-0846-4e20-8de1-6042ed461435)"></rect></g><g transform="matrix(1,0,0,1,0,25.32538282631174)"><svg viewBox="0 0 395.52 132.5936273628886" height="132.5936273628886" width="395.52"><g id="SvgjsG1035"><svg viewBox="0 0 395.52 132.5936273628886" height="132.5936273628886" width="395.52" id="SvgjsSvg1034"><g><svg viewBox="0 0 395.52 61.2986447831184" height="61.2986447831184" width="395.52"><g transform="matrix(1,0,0,1,0,0)"><svg width="395.52" viewBox="2.85 -32.45 213.23000000000002 33.050000000000004" height="61.2986447831184" data-palette-color="url(#4de9f1c3-0846-4e20-8de1-6042ed461435)"><path d="M10.95 0.6Q8.85 0.6 7.1 0.23 5.35-0.15 4.23-0.6 3.1-1.05 3.1-1.1L3.1-1.1 2.85-1.6Q2.9-1.9 3.05-3.1 3.2-4.3 3.33-6.23 3.45-8.15 3.45-10.3L3.45-10.3 5.7-10.55Q5.7-6.8 6.2-5 6.7-3.2 8.05-2.53 9.4-1.85 12.2-1.85L12.2-1.85Q15.35-1.85 17.25-3.33 19.15-4.8 19.15-7.35L19.15-7.35Q19.15-8.85 18.13-10.05 17.1-11.25 15.7-12.1 14.3-12.95 11.55-14.4L11.55-14.4Q8.95-15.75 7.3-16.88 5.65-18 4.53-19.55 3.4-21.1 3.4-23.15L3.4-23.15Q3.4-25.75 4.93-27.88 6.45-30 9.08-31.23 11.7-32.45 14.9-32.45L14.9-32.45Q16.9-32.45 18.6-32.18 20.3-31.9 21.3-31.6 22.3-31.3 22.55-31.2L22.55-31.2 22.7-30.9Q22.65-30.6 22.45-29.5 22.25-28.4 22-26.45 21.75-24.5 21.6-22.45L21.6-22.45 19.65-22.25 19.35-22.5Q19.4-22.7 19.45-23.43 19.5-24.15 19.5-25.1L19.5-25.1Q19.5-27.75 18.2-28.75 16.9-29.75 13.55-29.75L13.55-29.75Q10.8-29.75 9.03-28.38 7.25-27 7.25-24.95L7.25-24.95Q7.25-22.95 8.97-21.48 10.7-20 14.05-18.25L14.05-18.25Q17.3-16.6 19-15.53 20.7-14.45 22-12.85 23.3-11.25 23.3-9.15L23.3-9.15Q23.3-6.35 21.73-4.13 20.15-1.9 17.35-0.65 14.55 0.6 10.95 0.6L10.95 0.6ZM32 0.2L32.35-1.8Q34.35-1.95 35.17-2.3 36-2.65 36.22-3.48 36.45-4.3 36.45-6.35L36.45-6.35 36.45-22.9Q33.3-22.8 32.2-22.55 31.1-22.3 30.57-21.38 30.05-20.45 29.7-17.9L29.7-17.9 27.35-17.75Q27.45-18.4 27.67-20.63 27.9-22.85 27.95-25L27.95-25 28.35-25.35 31.9-24.95 44.65-24.95 48.3-25.35 48.7-25Q48.75-22.8 48.95-20.65 49.15-18.5 49.25-17.9L49.25-17.9 46.95-17.75Q46.55-20.35 46.02-21.33 45.5-22.3 44.47-22.55 43.45-22.8 40.55-22.9L40.55-22.9Q40.3-20.5 40.1-14.93 39.9-9.35 39.9-4.65L39.9-4.65Q39.9-3.2 40.45-2.6 41-2 42.25-2L42.25-2Q43.15-2 43.72-2.05 44.3-2.1 44.45-2.1L44.45-2.1 44.6-1.95 44.25 0.15Q43.55 0.15 41.65 0.08 39.75 0 37.95 0L37.95 0Q36.15 0 34.4 0.08 32.65 0.15 32 0.2L32 0.2ZM63.15 0.35L63 0.1 63.15-1.7Q65.25-1.85 65.97-2.15 66.7-2.45 66.7-3.15L66.7-3.15Q66.7-3.95 66.35-4.85L66.35-4.85 65.15-8.7Q64.15-8.75 61-8.75L61-8.75Q59.55-8.75 56.7-8.45L56.7-8.45 55.3-4.75Q54.95-3.6 54.95-3.35L54.95-3.35Q54.95-2.55 55.5-2.2 56.05-1.85 57.3-1.85L57.3-1.85 59.45-1.85 59.6-1.65 59.3 0.25Q58.8 0.2 57.02 0.1 55.25 0 53.55 0L53.55 0Q51.95 0 50.67 0.05 49.4 0.1 48.95 0.1L48.95 0.1 49.25-1.95Q50.35-2.1 51-2.73 51.65-3.35 52.3-4.85L52.3-4.85 60.15-24.7 63.7-25.35 64.05-25.3Q64.05-25.1 66.32-17.4 68.6-9.7 70.4-4.65L70.4-4.65Q70.9-3.2 71.67-2.63 72.45-2.05 74.15-1.9L74.15-1.9 74.25-1.7 74 0.1Q73.5 0.1 72.15 0.05 70.8 0 69.45 0L69.45 0Q67.4 0 65.55 0.15 63.7 0.3 63.15 0.35L63.15 0.35ZM57.5-10.8L60.9-10.8Q62.65-10.8 64.55-11L64.55-11 61.5-20.7 61.15-20.7 57.5-10.8ZM95.99 0.6Q94.89 0.6 93.74-0.38 92.59-1.35 91.64-3.05L91.64-3.05 87.44-10.4 84.19-10.4 84.09-5.05Q84.09-3.6 84.29-2.98 84.49-2.35 85.07-2.15 85.64-1.95 87.04-1.9L87.04-1.9 87.14-1.75 86.74 0.15Q86.14 0.1 84.57 0.08 82.99 0.05 81.39 0.05L81.39 0.05Q79.84 0.05 78.69 0.1 77.54 0.15 77.14 0.2L77.14 0.2 77.49-1.85Q79.34-2.1 79.94-2.7 80.54-3.3 80.54-4.95L80.54-4.95 80.59-20.9Q80.59-22.1 80.29-22.53 79.99-22.95 79.14-22.95L79.14-22.95 77.74-22.9 77.59-23.1 77.89-25Q78.39-25 79.79-24.95 81.19-24.9 82.59-24.9L82.59-24.9Q84.04-24.9 85.69-24.98 87.34-25.05 87.94-25.05L87.94-25.05Q91.99-25.05 94.29-23.38 96.59-21.7 96.59-18.75L96.59-18.75Q96.59-16.45 95.04-14.5 93.49-12.55 90.69-11.3L90.69-11.3 94.94-4.9Q96.14-3.1 97.24-2.35 98.34-1.6 99.89-1.6L99.89-1.6 100.09-1.35 99.84 0.2 95.99 0.6ZM88.34-12.6Q89.29-13 90.02-13.38 90.74-13.75 91.64-14.95 92.54-16.15 92.54-18.05L92.54-18.05Q92.54-22.9 85.39-22.9L85.39-22.9Q84.99-22.9 84.84-22.73 84.69-22.55 84.69-22L84.69-22Q84.29-15.9 84.29-13L84.29-13 88.34-12.6ZM107.04-20.85Q107.04-22.1 106.74-22.53 106.44-22.95 105.54-22.95L105.54-22.95 104.19-22.9 104.04-23.1 104.34-25Q104.89-25 106.34-24.95 107.79-24.9 109.14-24.9L109.14-24.9Q110.24-24.9 111.79-25.05 113.34-25.2 113.84-25.25L113.84-25.25 113.69-23.2Q112.14-22.95 111.59-22.48 111.04-22 110.99-20.9L110.99-20.9 110.54-4.65Q110.49-3.05 110.87-2.5 111.24-1.95 112.29-1.95L112.29-1.95Q112.89-1.95 113.39-2 113.89-2.05 114.04-2.1L114.04-2.1 114.14-1.9 113.79 0.1Q113.24 0.1 111.69 0.05 110.14 0 108.54 0L108.54 0 103.59 0.05 103.99-1.95Q105.89-2.15 106.44-2.7 106.99-3.25 106.99-4.95L106.99-4.95 107.04-20.85ZM111.69-12.95L118.69-19.9Q119.89-21.05 119.89-21.85L119.89-21.85Q119.89-22.9 117.44-23.05L117.44-23.05 117.34-23.25 117.64-25.15Q118.14-25.1 119.74-25 121.34-24.9 122.29-24.9L122.29-24.9Q123.59-24.9 124.77-24.95 125.94-25 126.34-25.05L126.34-25.05 126.54-24.75 126.24-22.95Q125.14-22.65 124.17-21.93 123.19-21.2 121.34-19.3L121.34-19.3 115.34-13.35 121.84-5.05Q123.29-3.25 124.42-2.5 125.54-1.75 126.94-1.7L126.94-1.7 127.14-1.45 126.89 0.1Q126.39 0.15 125.17 0.33 123.94 0.5 123.14 0.55L123.14 0.55Q120.94 0.55 118.54-2.75L118.54-2.75 111.64-12.3 111.69-12.95ZM143.89 0.6Q143.14 0.5 140.71 0.25 138.29 0 136.69 0L136.69 0Q135.14 0 133.31 0.25 131.49 0.5 130.94 0.6L130.94 0.6 131.24-1.7Q133.54-2.15 134.34-3.03 135.14-3.9 135.14-6L135.14-6 135.19-27Q135.19-28.6 134.81-29.15 134.44-29.7 133.34-29.7L133.34-29.7Q132.84-29.7 132.34-29.65 131.84-29.6 131.64-29.6L131.64-29.6 131.54-29.8 131.89-32Q132.44-31.95 133.99-31.9 135.54-31.85 137.14-31.85L137.14-31.85Q139.29-31.85 141.59-31.93 143.89-32 144.74-32.05L144.74-32.05Q149.54-32.05 153.29-30.18 157.04-28.3 159.11-24.9 161.19-21.5 161.19-17.1L161.19-17.1Q161.19-12.2 158.89-8.15 156.59-4.1 152.64-1.75 148.69 0.6 143.89 0.6L143.89 0.6ZM141.29-29.6Q140.24-29.6 139.89-29.38 139.54-29.15 139.49-28.5L139.49-28.5Q138.74-9.25 138.74-6.55L138.74-6.55Q138.74-4.65 139.26-3.7 139.79-2.75 141.11-2.35 142.44-1.95 145.04-1.95L145.04-1.95Q150.44-1.95 153.54-5.68 156.64-9.4 156.64-15.9L156.64-15.9Q156.64-22.5 152.66-26.05 148.69-29.6 141.29-29.6L141.29-29.6ZM165.89 0.4L166.14-1.7Q167.99-1.9 168.64-2.6 169.29-3.3 169.29-5L169.29-5 169.34-20.85Q169.34-22.1 169.04-22.53 168.74-22.95 167.84-22.95L167.84-22.95 166.49-22.9 166.39-23.1 166.69-25Q167.29-25 169.04-24.95 170.79-24.9 172.84-24.9L172.84-24.9Q181.19-24.9 185.19-25.35L185.19-25.35 185.34-25.1Q185.24-24.55 184.89-22.6 184.54-20.65 184.39-18.4L184.39-18.4 181.99-18.2Q181.99-18.4 182.04-18.88 182.09-19.35 182.09-19.85L182.09-19.85Q182.09-21.15 181.71-21.68 181.34-22.2 180.16-22.38 178.99-22.55 176.09-22.55L176.09-22.55Q174.74-22.55 174.24-22.48 173.74-22.4 173.59-22.13 173.44-21.85 173.39-21.1L173.39-21.1 173.09-14 177.19-13.95Q178.09-13.95 179.84-14.13 181.59-14.3 182.14-14.35L182.14-14.35 182.34-14.1 181.74-11.5Q181.19-11.5 179.56-11.55 177.94-11.6 176.14-11.6L176.14-11.6Q174.74-11.6 172.99-11.35L172.99-11.35Q172.84-7.55 172.84-4.5L172.84-4.5Q172.84-3.35 173.01-2.9 173.19-2.45 173.81-2.3 174.44-2.15 175.89-2.15L175.89-2.15Q179.14-2.15 180.54-2.45 181.94-2.75 182.51-3.68 183.09-4.6 183.44-6.85L183.44-6.85 185.64-7.05 185.84-6.8Q185.69-6.25 185.31-4.23 184.94-2.2 184.74 0L184.74 0 184.44 0.25Q183.09 0.2 178.84 0.1 174.59 0 171.94 0L171.94 0Q169.89 0 168.14 0.18 166.39 0.35 165.89 0.4L165.89 0.4ZM196.28-24.9Q198.18-24.9 199.88-25.03 201.58-25.15 202.03-25.2L202.03-25.2 202.13-24.9 201.98-23.25Q200.43-23.2 199.71-22.88 198.98-22.55 198.98-21.95L198.98-21.95Q198.98-21.45 200.06-19.83 201.13-18.2 203.38-15L203.38-15 204.93-16.95Q205.18-17.3 206.26-18.65 207.33-20 207.88-20.88 208.43-21.75 208.43-22.1L208.43-22.1Q208.43-22.6 207.88-22.85 207.33-23.1 206.13-23.2L206.13-23.2 206.03-23.35 206.28-25.15Q206.53-25.15 208.21-25.03 209.88-24.9 211.03-24.9L211.03-24.9Q212.38-24.9 213.58-24.95 214.78-25 215.18-25.05L215.18-25.05 215.33-24.75 215.08-23.05Q213.28-22.6 212.28-21.83 211.28-21.05 209.53-18.95L209.53-18.95 204.73-13.05 210.43-5.25Q211.58-3.7 212.86-2.93 214.13-2.15 215.98-2L215.98-2 216.08-1.85 215.78 0.1Q215.23 0.1 213.73 0.05 212.23 0 210.63 0L210.63 0Q209.23 0 206.98 0.13 204.73 0.25 204.03 0.3L204.03 0.3 203.88 0 204.03-1.75Q205.58-1.85 206.31-2.13 207.03-2.4 207.03-3.05L207.03-3.05Q207.03-3.35 206.81-3.78 206.58-4.2 206.23-4.65L206.23-4.65 201.98-10.6 198.48-6.2Q197.38-4.8 196.98-4.15 196.58-3.5 196.58-3L196.58-3Q196.58-2 198.83-1.85L198.83-1.85 198.98-1.65 198.68 0.25Q198.18 0.2 196.56 0.1 194.93 0 193.98 0L193.98 0Q192.63 0 191.41 0.05 190.18 0.1 189.73 0.15L189.73 0.15 189.58-0.15 189.83-2Q191.43-2.45 192.88-3.7 194.33-4.95 196.33-7.3L196.33-7.3 200.73-12.55 195.58-19.75Q194.53-21.2 193.23-21.98 191.93-22.75 190.08-23L190.08-23 189.98-23.2 190.23-25Q190.88-25 192.66-24.95 194.43-24.9 196.28-24.9L196.28-24.9Z" opacity="1" transform="matrix(1,0,0,1,0,0)" fill="black" class="wordmark-text-0" id="SvgjsPath1033"></path></svg></g></svg></g><g transform="matrix(1,0,0,1,213.71584939044325,75.76978364893786)"><svg viewBox="0 0 181.80415060955673 56.82384371395075" height="56.82384371395075" width="181.80415060955673"><g transform="matrix(1,0,0,1,0,0)"><svg width="181.80415060955673" viewBox="2.3 -25.35 113.09 35.35" height="56.82384371395075" data-palette-color="url(#f56f8f03-cba9-4e6d-97a7-4de5f5828ab8)"><path d="M2.3-6.45L5.9-7.65Q6.2-6.15 7-5.18 7.8-4.2 9.08-3.7 10.35-3.2 12.05-3.2L12.05-3.2Q14.7-3.2 16.07-4.23 17.45-5.25 17.45-6.8L17.45-6.8Q17.45-8.1 16.63-8.9 15.8-9.7 14.45-10.23 13.1-10.75 11.45-11.15L11.45-11.15Q10.15-11.45 8.65-11.88 7.15-12.3 5.8-13.05 4.45-13.8 3.6-15 2.75-16.2 2.75-18.15L2.75-18.15Q2.75-20.3 3.93-21.93 5.1-23.55 7.18-24.45 9.25-25.35 11.95-25.35L11.95-25.35Q15.05-25.35 17.48-24 19.9-22.65 20.85-19.8L20.85-19.8 17.35-18.6Q17-19.9 16.07-20.6 15.15-21.3 14.03-21.55 12.9-21.8 11.8-21.8L11.8-21.8Q9.55-21.8 8.18-20.93 6.8-20.05 6.8-18.3L6.8-18.3Q6.8-17.35 7.25-16.73 7.7-16.1 8.5-15.7 9.3-15.3 10.4-15.03 11.5-14.75 12.8-14.4L12.8-14.4Q14.25-14.05 15.75-13.53 17.25-13 18.55-12.18 19.85-11.35 20.68-10.08 21.5-8.8 21.5-6.9L21.5-6.9Q21.5-4.7 20.3-3.08 19.1-1.45 16.98-0.55 14.85 0.35 12.05 0.35L12.05 0.35Q8.2 0.35 5.68-1.38 3.15-3.1 2.3-6.45L2.3-6.45ZM42.65-19.4L36.3 0 32.9 0 25.05-25 28.85-25 34.6-4.65 41.05-25 44.45-25 50.8-4.7 56.5-25 60.2-25 52.4 0 48.95 0 42.65-19.4ZM83.9 0L80.45 0 80.15-4.5Q79.1-2.2 77.05-0.93 75 0.35 71.85 0.35L71.85 0.35Q69.15 0.35 67.25-0.5 65.35-1.35 64.32-2.93 63.3-4.5 63.3-6.65L63.3-6.65Q63.3-9.8 65.65-11.83 68-13.85 72.45-14.3L72.45-14.3 80.15-15.15 80.15-17.15Q80.15-19.25 78.6-20.53 77.05-21.8 74.4-21.8L74.4-21.8Q71.8-21.8 70.07-20.6 68.35-19.4 67.7-17.15L67.7-17.15 64.3-18.35Q65.3-21.65 67.97-23.5 70.65-25.35 74.5-25.35L74.5-25.35Q78.95-25.35 81.42-23.08 83.9-20.8 83.9-16.9L83.9-16.9 83.9 0ZM80.15-11.15L80.15-11.95 72.4-11.05Q69.9-10.75 68.6-9.68 67.3-8.6 67.3-6.85L67.3-6.85Q67.3-5.1 68.57-4.05 69.85-3 72.25-3L72.25-3Q75-3 76.75-4.1 78.5-5.2 79.32-7.08 80.15-8.95 80.15-11.15L80.15-11.15ZM94.54-5.05L94.54-5.05 94.94-5.1 94.94 10 91.19 10 91.19-25 94.64-25 94.89-20.35Q96.04-22.45 98.29-23.9 100.54-25.35 103.94-25.35L103.94-25.35Q107.19-25.35 109.79-23.78 112.39-22.2 113.89-19.33 115.39-16.45 115.39-12.5L115.39-12.5Q115.39-8.6 113.97-5.73 112.54-2.85 109.97-1.25 107.39 0.35 103.94 0.35L103.94 0.35Q100.34 0.35 97.99-1.2 95.64-2.75 94.54-5.05ZM111.34-12.5L111.34-12.5Q111.34-16.8 109.12-19.33 106.89-21.85 103.14-21.85L103.14-21.85Q100.79-21.85 98.92-20.75 97.04-19.65 95.99-17.55 94.94-15.45 94.94-12.5L94.94-12.5Q94.94-9.6 95.99-7.5 97.04-5.4 98.92-4.28 100.79-3.15 103.14-3.15L103.14-3.15Q106.89-3.15 109.12-5.68 111.34-8.2 111.34-12.5Z" opacity="1" transform="matrix(1,0,0,1,0,0)" fill="black" class="slogan-text-1" id="SvgjsPath1032"></path></svg></g></svg></g></svg></g></svg></g><g transform="matrix(1,0,0,1,429.99025277838194,0)"><svg viewBox="0 0 192.41807977473673 183.2443930155121" height="183.2443930155121" width="192.41807977473673"><g><svg xmlns="http://www.w3.org/2000/svg" xmlns:xlink="http://www.w3.org/1999/xlink" version="1.1" x="0" y="0" viewBox="7.8 9.8 83.9 79.9" enable-background="new 0 0 100 100" xml:space="preserve" height="183.2443930155121" width="192.41807977473673" class="icon-icon-0" data-fill-palette-color="accent" id="SvgjsSvg1031"><rect x="7.8" y="9.8" width="35" height="35" fill="black"></rect><rect x="56.7" y="54.7" width="35" height="35" fill="black"></rect><path d="M33.3 61.4H40L29.4 50.9 18.8 61.4l6.7 0C26.5 73.5 36.7 83 49 83v-7.8C41 75.3 34.3 69.2 33.3 61.4z" fill="black"></path><path d="M66 38.9h-6.6l10.6 10.6 10.6-10.6-6.7 0c-1-12.1-11.2-21.6-23.6-21.6v7.8C58.3 25.1 65 31.1 66 38.9z" fill="black"></path></svg></g></svg></g></svg></g><defs><mask></mask></defs></svg><rect width="395.52" height="116.44577769098213" fill="black" stroke="none" visibility="hidden"></rect></g></mask><mask><g id="SvgjsG1030"><svg viewBox="0 0 395.52 116.44577769098213" height="116.44577769098213" width="395.52"><g><svg viewBox="0 0 622.4083325531187 183.2443930155121" height="116.44577769098213" width="395.52"><g></g><g transform="matrix(1,0,0,1,0,25.32538282631174)"><svg viewBox="0 0 395.52 132.5936273628886" height="132.5936273628886" width="395.52"><g id="SvgjsG1029"><svg viewBox="0 0 395.52 132.5936273628886" height="132.5936273628886" width="395.52" id="SvgjsSvg1028"><g><svg viewBox="0 0 395.52 61.2986447831184" height="61.2986447831184" width="395.52"><g transform="matrix(1,0,0,1,0,0)"><svg width="395.52" viewBox="2.85 -32.45 213.23000000000002 33.050000000000004" height="61.2986447831184" data-palette-color="url(#4de9f1c3-0846-4e20-8de1-6042ed461435)"></svg></g></svg></g><g transform="matrix(1,0,0,1,213.71584939044325,75.76978364893786)"><svg viewBox="0 0 181.80415060955673 56.82384371395075" height="56.82384371395075" width="181.80415060955673"><g transform="matrix(1,0,0,1,0,0)"><svg width="181.80415060955673" viewBox="2.3 -25.35 113.09 35.35" height="56.82384371395075" data-palette-color="url(#f56f8f03-cba9-4e6d-97a7-4de5f5828ab8)"><path d="M2.3-6.45L5.9-7.65Q6.2-6.15 7-5.18 7.8-4.2 9.08-3.7 10.35-3.2 12.05-3.2L12.05-3.2Q14.7-3.2 16.07-4.23 17.45-5.25 17.45-6.8L17.45-6.8Q17.45-8.1 16.63-8.9 15.8-9.7 14.45-10.23 13.1-10.75 11.45-11.15L11.45-11.15Q10.15-11.45 8.65-11.88 7.15-12.3 5.8-13.05 4.45-13.8 3.6-15 2.75-16.2 2.75-18.15L2.75-18.15Q2.75-20.3 3.93-21.93 5.1-23.55 7.18-24.45 9.25-25.35 11.95-25.35L11.95-25.35Q15.05-25.35 17.48-24 19.9-22.65 20.85-19.8L20.85-19.8 17.35-18.6Q17-19.9 16.07-20.6 15.15-21.3 14.03-21.55 12.9-21.8 11.8-21.8L11.8-21.8Q9.55-21.8 8.18-20.93 6.8-20.05 6.8-18.3L6.8-18.3Q6.8-17.35 7.25-16.73 7.7-16.1 8.5-15.7 9.3-15.3 10.4-15.03 11.5-14.75 12.8-14.4L12.8-14.4Q14.25-14.05 15.75-13.53 17.25-13 18.55-12.18 19.85-11.35 20.68-10.08 21.5-8.8 21.5-6.9L21.5-6.9Q21.5-4.7 20.3-3.08 19.1-1.45 16.98-0.55 14.85 0.35 12.05 0.35L12.05 0.35Q8.2 0.35 5.68-1.38 3.15-3.1 2.3-6.45L2.3-6.45ZM42.65-19.4L36.3 0 32.9 0 25.05-25 28.85-25 34.6-4.65 41.05-25 44.45-25 50.8-4.7 56.5-25 60.2-25 52.4 0 48.95 0 42.65-19.4ZM83.9 0L80.45 0 80.15-4.5Q79.1-2.2 77.05-0.93 75 0.35 71.85 0.35L71.85 0.35Q69.15 0.35 67.25-0.5 65.35-1.35 64.32-2.93 63.3-4.5 63.3-6.65L63.3-6.65Q63.3-9.8 65.65-11.83 68-13.85 72.45-14.3L72.45-14.3 80.15-15.15 80.15-17.15Q80.15-19.25 78.6-20.53 77.05-21.8 74.4-21.8L74.4-21.8Q71.8-21.8 70.07-20.6 68.35-19.4 67.7-17.15L67.7-17.15 64.3-18.35Q65.3-21.65 67.97-23.5 70.65-25.35 74.5-25.35L74.5-25.35Q78.95-25.35 81.42-23.08 83.9-20.8 83.9-16.9L83.9-16.9 83.9 0ZM80.15-11.15L80.15-11.95 72.4-11.05Q69.9-10.75 68.6-9.68 67.3-8.6 67.3-6.85L67.3-6.85Q67.3-5.1 68.57-4.05 69.85-3 72.25-3L72.25-3Q75-3 76.75-4.1 78.5-5.2 79.32-7.08 80.15-8.95 80.15-11.15L80.15-11.15ZM94.54-5.05L94.54-5.05 94.94-5.1 94.94 10 91.19 10 91.19-25 94.64-25 94.89-20.35Q96.04-22.45 98.29-23.9 100.54-25.35 103.94-25.35L103.94-25.35Q107.19-25.35 109.79-23.78 112.39-22.2 113.89-19.33 115.39-16.45 115.39-12.5L115.39-12.5Q115.39-8.6 113.97-5.73 112.54-2.85 109.97-1.25 107.39 0.35 103.94 0.35L103.94 0.35Q100.34 0.35 97.99-1.2 95.64-2.75 94.54-5.05ZM111.34-12.5L111.34-12.5Q111.34-16.8 109.12-19.33 106.89-21.85 103.14-21.85L103.14-21.85Q100.79-21.85 98.92-20.75 97.04-19.65 95.99-17.55 94.94-15.45 94.94-12.5L94.94-12.5Q94.94-9.6 95.99-7.5 97.04-5.4 98.92-4.28 100.79-3.15 103.14-3.15L103.14-3.15Q106.89-3.15 109.12-5.68 111.34-8.2 111.34-12.5Z" opacity="1" transform="matrix(1,0,0,1,0,0)" fill="black" class="slogan-text-1" id="SvgjsPath1027"></path></svg></g></svg></g></svg></g></svg></g><g transform="matrix(1,0,0,1,429.99025277838194,0)"><svg viewBox="0 0 192.41807977473673 183.2443930155121" height="183.2443930155121" width="192.41807977473673"><g><svg xmlns="http://www.w3.org/2000/svg" xmlns:xlink="http://www.w3.org/1999/xlink" version="1.1" x="0" y="0" viewBox="7.8 9.8 83.9 79.9" enable-background="new 0 0 100 100" xml:space="preserve" height="183.2443930155121" width="192.41807977473673" class="icon-icon-0" data-fill-palette-color="accent" id="SvgjsSvg1026"><rect x="7.8" y="9.8" width="35" height="35" fill="black"></rect><rect x="56.7" y="54.7" width="35" height="35" fill="black"></rect><path d="M33.3 61.4H40L29.4 50.9 18.8 61.4l6.7 0C26.5 73.5 36.7 83 49 83v-7.8C41 75.3 34.3 69.2 33.3 61.4z" fill="black"></path><path d="M66 38.9h-6.6l10.6 10.6 10.6-10.6-6.7 0c-1-12.1-11.2-21.6-23.6-21.6v7.8C58.3 25.1 65 31.1 66 38.9z" fill="black"></path></svg></g></svg></g></svg></g><defs><mask></mask></defs><mask><g id="SvgjsG1025"><svg viewBox="0 0 395.52 116.44577769098213" height="116.44577769098213" width="395.52"><g><svg viewBox="0 0 622.4083325531187 183.2443930155121" height="116.44577769098213" width="395.52"><g><rect width="5.527975046743033" height="159.11235283546634" x="409.99113886581944" y="12.066020090022874" fill="black" opacity="1" stroke-width="0" stroke="transparent" fill-opacity="1" class="rect-qz-0" rx="1%" id="SvgjsRect1024" data-palette-color="url(#4de9f1c3-0846-4e20-8de1-6042ed461435)"></rect></g><g transform="matrix(1,0,0,1,0,25.32538282631174)"><svg viewBox="0 0 395.52 132.5936273628886" height="132.5936273628886" width="395.52"><g id="SvgjsG1023"><svg viewBox="0 0 395.52 132.5936273628886" height="132.5936273628886" width="395.52" id="SvgjsSvg1022"><g><svg viewBox="0 0 395.52 61.2986447831184" height="61.2986447831184" width="395.52"><g transform="matrix(1,0,0,1,0,0)"><svg width="395.52" viewBox="2.85 -32.45 213.23000000000002 33.050000000000004" height="61.2986447831184" data-palette-color="url(#4de9f1c3-0846-4e20-8de1-6042ed461435)"><path d="M10.95 0.6Q8.85 0.6 7.1 0.23 5.35-0.15 4.23-0.6 3.1-1.05 3.1-1.1L3.1-1.1 2.85-1.6Q2.9-1.9 3.05-3.1 3.2-4.3 3.33-6.23 3.45-8.15 3.45-10.3L3.45-10.3 5.7-10.55Q5.7-6.8 6.2-5 6.7-3.2 8.05-2.53 9.4-1.85 12.2-1.85L12.2-1.85Q15.35-1.85 17.25-3.33 19.15-4.8 19.15-7.35L19.15-7.35Q19.15-8.85 18.13-10.05 17.1-11.25 15.7-12.1 14.3-12.95 11.55-14.4L11.55-14.4Q8.95-15.75 7.3-16.88 5.65-18 4.53-19.55 3.4-21.1 3.4-23.15L3.4-23.15Q3.4-25.75 4.93-27.88 6.45-30 9.08-31.23 11.7-32.45 14.9-32.45L14.9-32.45Q16.9-32.45 18.6-32.18 20.3-31.9 21.3-31.6 22.3-31.3 22.55-31.2L22.55-31.2 22.7-30.9Q22.65-30.6 22.45-29.5 22.25-28.4 22-26.45 21.75-24.5 21.6-22.45L21.6-22.45 19.65-22.25 19.35-22.5Q19.4-22.7 19.45-23.43 19.5-24.15 19.5-25.1L19.5-25.1Q19.5-27.75 18.2-28.75 16.9-29.75 13.55-29.75L13.55-29.75Q10.8-29.75 9.03-28.38 7.25-27 7.25-24.95L7.25-24.95Q7.25-22.95 8.97-21.48 10.7-20 14.05-18.25L14.05-18.25Q17.3-16.6 19-15.53 20.7-14.45 22-12.85 23.3-11.25 23.3-9.15L23.3-9.15Q23.3-6.35 21.73-4.13 20.15-1.9 17.35-0.65 14.55 0.6 10.95 0.6L10.95 0.6ZM32 0.2L32.35-1.8Q34.35-1.95 35.17-2.3 36-2.65 36.22-3.48 36.45-4.3 36.45-6.35L36.45-6.35 36.45-22.9Q33.3-22.8 32.2-22.55 31.1-22.3 30.57-21.38 30.05-20.45 29.7-17.9L29.7-17.9 27.35-17.75Q27.45-18.4 27.67-20.63 27.9-22.85 27.95-25L27.95-25 28.35-25.35 31.9-24.95 44.65-24.95 48.3-25.35 48.7-25Q48.75-22.8 48.95-20.65 49.15-18.5 49.25-17.9L49.25-17.9 46.95-17.75Q46.55-20.35 46.02-21.33 45.5-22.3 44.47-22.55 43.45-22.8 40.55-22.9L40.55-22.9Q40.3-20.5 40.1-14.93 39.9-9.35 39.9-4.65L39.9-4.65Q39.9-3.2 40.45-2.6 41-2 42.25-2L42.25-2Q43.15-2 43.72-2.05 44.3-2.1 44.45-2.1L44.45-2.1 44.6-1.95 44.25 0.15Q43.55 0.15 41.65 0.08 39.75 0 37.95 0L37.95 0Q36.15 0 34.4 0.08 32.65 0.15 32 0.2L32 0.2ZM63.15 0.35L63 0.1 63.15-1.7Q65.25-1.85 65.97-2.15 66.7-2.45 66.7-3.15L66.7-3.15Q66.7-3.95 66.35-4.85L66.35-4.85 65.15-8.7Q64.15-8.75 61-8.75L61-8.75Q59.55-8.75 56.7-8.45L56.7-8.45 55.3-4.75Q54.95-3.6 54.95-3.35L54.95-3.35Q54.95-2.55 55.5-2.2 56.05-1.85 57.3-1.85L57.3-1.85 59.45-1.85 59.6-1.65 59.3 0.25Q58.8 0.2 57.02 0.1 55.25 0 53.55 0L53.55 0Q51.95 0 50.67 0.05 49.4 0.1 48.95 0.1L48.95 0.1 49.25-1.95Q50.35-2.1 51-2.73 51.65-3.35 52.3-4.85L52.3-4.85 60.15-24.7 63.7-25.35 64.05-25.3Q64.05-25.1 66.32-17.4 68.6-9.7 70.4-4.65L70.4-4.65Q70.9-3.2 71.67-2.63 72.45-2.05 74.15-1.9L74.15-1.9 74.25-1.7 74 0.1Q73.5 0.1 72.15 0.05 70.8 0 69.45 0L69.45 0Q67.4 0 65.55 0.15 63.7 0.3 63.15 0.35L63.15 0.35ZM57.5-10.8L60.9-10.8Q62.65-10.8 64.55-11L64.55-11 61.5-20.7 61.15-20.7 57.5-10.8ZM95.99 0.6Q94.89 0.6 93.74-0.38 92.59-1.35 91.64-3.05L91.64-3.05 87.44-10.4 84.19-10.4 84.09-5.05Q84.09-3.6 84.29-2.98 84.49-2.35 85.07-2.15 85.64-1.95 87.04-1.9L87.04-1.9 87.14-1.75 86.74 0.15Q86.14 0.1 84.57 0.08 82.99 0.05 81.39 0.05L81.39 0.05Q79.84 0.05 78.69 0.1 77.54 0.15 77.14 0.2L77.14 0.2 77.49-1.85Q79.34-2.1 79.94-2.7 80.54-3.3 80.54-4.95L80.54-4.95 80.59-20.9Q80.59-22.1 80.29-22.53 79.99-22.95 79.14-22.95L79.14-22.95 77.74-22.9 77.59-23.1 77.89-25Q78.39-25 79.79-24.95 81.19-24.9 82.59-24.9L82.59-24.9Q84.04-24.9 85.69-24.98 87.34-25.05 87.94-25.05L87.94-25.05Q91.99-25.05 94.29-23.38 96.59-21.7 96.59-18.75L96.59-18.75Q96.59-16.45 95.04-14.5 93.49-12.55 90.69-11.3L90.69-11.3 94.94-4.9Q96.14-3.1 97.24-2.35 98.34-1.6 99.89-1.6L99.89-1.6 100.09-1.35 99.84 0.2 95.99 0.6ZM88.34-12.6Q89.29-13 90.02-13.38 90.74-13.75 91.64-14.95 92.54-16.15 92.54-18.05L92.54-18.05Q92.54-22.9 85.39-22.9L85.39-22.9Q84.99-22.9 84.84-22.73 84.69-22.55 84.69-22L84.69-22Q84.29-15.9 84.29-13L84.29-13 88.34-12.6ZM107.04-20.85Q107.04-22.1 106.74-22.53 106.44-22.95 105.54-22.95L105.54-22.95 104.19-22.9 104.04-23.1 104.34-25Q104.89-25 106.34-24.95 107.79-24.9 109.14-24.9L109.14-24.9Q110.24-24.9 111.79-25.05 113.34-25.2 113.84-25.25L113.84-25.25 113.69-23.2Q112.14-22.95 111.59-22.48 111.04-22 110.99-20.9L110.99-20.9 110.54-4.65Q110.49-3.05 110.87-2.5 111.24-1.95 112.29-1.95L112.29-1.95Q112.89-1.95 113.39-2 113.89-2.05 114.04-2.1L114.04-2.1 114.14-1.9 113.79 0.1Q113.24 0.1 111.69 0.05 110.14 0 108.54 0L108.54 0 103.59 0.05 103.99-1.95Q105.89-2.15 106.44-2.7 106.99-3.25 106.99-4.95L106.99-4.95 107.04-20.85ZM111.69-12.95L118.69-19.9Q119.89-21.05 119.89-21.85L119.89-21.85Q119.89-22.9 117.44-23.05L117.44-23.05 117.34-23.25 117.64-25.15Q118.14-25.1 119.74-25 121.34-24.9 122.29-24.9L122.29-24.9Q123.59-24.9 124.77-24.95 125.94-25 126.34-25.05L126.34-25.05 126.54-24.75 126.24-22.95Q125.14-22.65 124.17-21.93 123.19-21.2 121.34-19.3L121.34-19.3 115.34-13.35 121.84-5.05Q123.29-3.25 124.42-2.5 125.54-1.75 126.94-1.7L126.94-1.7 127.14-1.45 126.89 0.1Q126.39 0.15 125.17 0.33 123.94 0.5 123.14 0.55L123.14 0.55Q120.94 0.55 118.54-2.75L118.54-2.75 111.64-12.3 111.69-12.95ZM143.89 0.6Q143.14 0.5 140.71 0.25 138.29 0 136.69 0L136.69 0Q135.14 0 133.31 0.25 131.49 0.5 130.94 0.6L130.94 0.6 131.24-1.7Q133.54-2.15 134.34-3.03 135.14-3.9 135.14-6L135.14-6 135.19-27Q135.19-28.6 134.81-29.15 134.44-29.7 133.34-29.7L133.34-29.7Q132.84-29.7 132.34-29.65 131.84-29.6 131.64-29.6L131.64-29.6 131.54-29.8 131.89-32Q132.44-31.95 133.99-31.9 135.54-31.85 137.14-31.85L137.14-31.85Q139.29-31.85 141.59-31.93 143.89-32 144.74-32.05L144.74-32.05Q149.54-32.05 153.29-30.18 157.04-28.3 159.11-24.9 161.19-21.5 161.19-17.1L161.19-17.1Q161.19-12.2 158.89-8.15 156.59-4.1 152.64-1.75 148.69 0.6 143.89 0.6L143.89 0.6ZM141.29-29.6Q140.24-29.6 139.89-29.38 139.54-29.15 139.49-28.5L139.49-28.5Q138.74-9.25 138.74-6.55L138.74-6.55Q138.74-4.65 139.26-3.7 139.79-2.75 141.11-2.35 142.44-1.95 145.04-1.95L145.04-1.95Q150.44-1.95 153.54-5.68 156.64-9.4 156.64-15.9L156.64-15.9Q156.64-22.5 152.66-26.05 148.69-29.6 141.29-29.6L141.29-29.6ZM165.89 0.4L166.14-1.7Q167.99-1.9 168.64-2.6 169.29-3.3 169.29-5L169.29-5 169.34-20.85Q169.34-22.1 169.04-22.53 168.74-22.95 167.84-22.95L167.84-22.95 166.49-22.9 166.39-23.1 166.69-25Q167.29-25 169.04-24.95 170.79-24.9 172.84-24.9L172.84-24.9Q181.19-24.9 185.19-25.35L185.19-25.35 185.34-25.1Q185.24-24.55 184.89-22.6 184.54-20.65 184.39-18.4L184.39-18.4 181.99-18.2Q181.99-18.4 182.04-18.88 182.09-19.35 182.09-19.85L182.09-19.85Q182.09-21.15 181.71-21.68 181.34-22.2 180.16-22.38 178.99-22.55 176.09-22.55L176.09-22.55Q174.74-22.55 174.24-22.48 173.74-22.4 173.59-22.13 173.44-21.85 173.39-21.1L173.39-21.1 173.09-14 177.19-13.95Q178.09-13.95 179.84-14.13 181.59-14.3 182.14-14.35L182.14-14.35 182.34-14.1 181.74-11.5Q181.19-11.5 179.56-11.55 177.94-11.6 176.14-11.6L176.14-11.6Q174.74-11.6 172.99-11.35L172.99-11.35Q172.84-7.55 172.84-4.5L172.84-4.5Q172.84-3.35 173.01-2.9 173.19-2.45 173.81-2.3 174.44-2.15 175.89-2.15L175.89-2.15Q179.14-2.15 180.54-2.45 181.94-2.75 182.51-3.68 183.09-4.6 183.44-6.85L183.44-6.85 185.64-7.05 185.84-6.8Q185.69-6.25 185.31-4.23 184.94-2.2 184.74 0L184.74 0 184.44 0.25Q183.09 0.2 178.84 0.1 174.59 0 171.94 0L171.94 0Q169.89 0 168.14 0.18 166.39 0.35 165.89 0.4L165.89 0.4ZM196.28-24.9Q198.18-24.9 199.88-25.03 201.58-25.15 202.03-25.2L202.03-25.2 202.13-24.9 201.98-23.25Q200.43-23.2 199.71-22.88 198.98-22.55 198.98-21.95L198.98-21.95Q198.98-21.45 200.06-19.83 201.13-18.2 203.38-15L203.38-15 204.93-16.95Q205.18-17.3 206.26-18.65 207.33-20 207.88-20.88 208.43-21.75 208.43-22.1L208.43-22.1Q208.43-22.6 207.88-22.85 207.33-23.1 206.13-23.2L206.13-23.2 206.03-23.35 206.28-25.15Q206.53-25.15 208.21-25.03 209.88-24.9 211.03-24.9L211.03-24.9Q212.38-24.9 213.58-24.95 214.78-25 215.18-25.05L215.18-25.05 215.33-24.75 215.08-23.05Q213.28-22.6 212.28-21.83 211.28-21.05 209.53-18.95L209.53-18.95 204.73-13.05 210.43-5.25Q211.58-3.7 212.86-2.93 214.13-2.15 215.98-2L215.98-2 216.08-1.85 215.78 0.1Q215.23 0.1 213.73 0.05 212.23 0 210.63 0L210.63 0Q209.23 0 206.98 0.13 204.73 0.25 204.03 0.3L204.03 0.3 203.88 0 204.03-1.75Q205.58-1.85 206.31-2.13 207.03-2.4 207.03-3.05L207.03-3.05Q207.03-3.35 206.81-3.78 206.58-4.2 206.23-4.65L206.23-4.65 201.98-10.6 198.48-6.2Q197.38-4.8 196.98-4.15 196.58-3.5 196.58-3L196.58-3Q196.58-2 198.83-1.85L198.83-1.85 198.98-1.65 198.68 0.25Q198.18 0.2 196.56 0.1 194.93 0 193.98 0L193.98 0Q192.63 0 191.41 0.05 190.18 0.1 189.73 0.15L189.73 0.15 189.58-0.15 189.83-2Q191.43-2.45 192.88-3.7 194.33-4.95 196.33-7.3L196.33-7.3 200.73-12.55 195.58-19.75Q194.53-21.2 193.23-21.98 191.93-22.75 190.08-23L190.08-23 189.98-23.2 190.23-25Q190.88-25 192.66-24.95 194.43-24.9 196.28-24.9L196.28-24.9Z" opacity="1" transform="matrix(1,0,0,1,0,0)" fill="black" class="wordmark-text-0" id="SvgjsPath1021"></path></svg></g></svg></g><g transform="matrix(1,0,0,1,213.71584939044325,75.76978364893786)"><svg viewBox="0 0 181.80415060955673 56.82384371395075" height="56.82384371395075" width="181.80415060955673"><g transform="matrix(1,0,0,1,0,0)"><svg width="181.80415060955673" viewBox="2.3 -25.35 113.09 35.35" height="56.82384371395075" data-palette-color="url(#f56f8f03-cba9-4e6d-97a7-4de5f5828ab8)"><path d="M2.3-6.45L5.9-7.65Q6.2-6.15 7-5.18 7.8-4.2 9.08-3.7 10.35-3.2 12.05-3.2L12.05-3.2Q14.7-3.2 16.07-4.23 17.45-5.25 17.45-6.8L17.45-6.8Q17.45-8.1 16.63-8.9 15.8-9.7 14.45-10.23 13.1-10.75 11.45-11.15L11.45-11.15Q10.15-11.45 8.65-11.88 7.15-12.3 5.8-13.05 4.45-13.8 3.6-15 2.75-16.2 2.75-18.15L2.75-18.15Q2.75-20.3 3.93-21.93 5.1-23.55 7.18-24.45 9.25-25.35 11.95-25.35L11.95-25.35Q15.05-25.35 17.48-24 19.9-22.65 20.85-19.8L20.85-19.8 17.35-18.6Q17-19.9 16.07-20.6 15.15-21.3 14.03-21.55 12.9-21.8 11.8-21.8L11.8-21.8Q9.55-21.8 8.18-20.93 6.8-20.05 6.8-18.3L6.8-18.3Q6.8-17.35 7.25-16.73 7.7-16.1 8.5-15.7 9.3-15.3 10.4-15.03 11.5-14.75 12.8-14.4L12.8-14.4Q14.25-14.05 15.75-13.53 17.25-13 18.55-12.18 19.85-11.35 20.68-10.08 21.5-8.8 21.5-6.9L21.5-6.9Q21.5-4.7 20.3-3.08 19.1-1.45 16.98-0.55 14.85 0.35 12.05 0.35L12.05 0.35Q8.2 0.35 5.68-1.38 3.15-3.1 2.3-6.45L2.3-6.45ZM42.65-19.4L36.3 0 32.9 0 25.05-25 28.85-25 34.6-4.65 41.05-25 44.45-25 50.8-4.7 56.5-25 60.2-25 52.4 0 48.95 0 42.65-19.4ZM83.9 0L80.45 0 80.15-4.5Q79.1-2.2 77.05-0.93 75 0.35 71.85 0.35L71.85 0.35Q69.15 0.35 67.25-0.5 65.35-1.35 64.32-2.93 63.3-4.5 63.3-6.65L63.3-6.65Q63.3-9.8 65.65-11.83 68-13.85 72.45-14.3L72.45-14.3 80.15-15.15 80.15-17.15Q80.15-19.25 78.6-20.53 77.05-21.8 74.4-21.8L74.4-21.8Q71.8-21.8 70.07-20.6 68.35-19.4 67.7-17.15L67.7-17.15 64.3-18.35Q65.3-21.65 67.97-23.5 70.65-25.35 74.5-25.35L74.5-25.35Q78.95-25.35 81.42-23.08 83.9-20.8 83.9-16.9L83.9-16.9 83.9 0ZM80.15-11.15L80.15-11.95 72.4-11.05Q69.9-10.75 68.6-9.68 67.3-8.6 67.3-6.85L67.3-6.85Q67.3-5.1 68.57-4.05 69.85-3 72.25-3L72.25-3Q75-3 76.75-4.1 78.5-5.2 79.32-7.08 80.15-8.95 80.15-11.15L80.15-11.15ZM94.54-5.05L94.54-5.05 94.94-5.1 94.94 10 91.19 10 91.19-25 94.64-25 94.89-20.35Q96.04-22.45 98.29-23.9 100.54-25.35 103.94-25.35L103.94-25.35Q107.19-25.35 109.79-23.78 112.39-22.2 113.89-19.33 115.39-16.45 115.39-12.5L115.39-12.5Q115.39-8.6 113.97-5.73 112.54-2.85 109.97-1.25 107.39 0.35 103.94 0.35L103.94 0.35Q100.34 0.35 97.99-1.2 95.64-2.75 94.54-5.05ZM111.34-12.5L111.34-12.5Q111.34-16.8 109.12-19.33 106.89-21.85 103.14-21.85L103.14-21.85Q100.79-21.85 98.92-20.75 97.04-19.65 95.99-17.55 94.94-15.45 94.94-12.5L94.94-12.5Q94.94-9.6 95.99-7.5 97.04-5.4 98.92-4.28 100.79-3.15 103.14-3.15L103.14-3.15Q106.89-3.15 109.12-5.68 111.34-8.2 111.34-12.5Z" opacity="1" transform="matrix(1,0,0,1,0,0)" fill="black" class="slogan-text-1" id="SvgjsPath1020"></path></svg></g></svg></g></svg></g></svg></g><g transform="matrix(1,0,0,1,429.99025277838194,0)"><svg viewBox="0 0 192.41807977473673 183.2443930155121" height="183.2443930155121" width="192.41807977473673"><g><svg xmlns="http://www.w3.org/2000/svg" xmlns:xlink="http://www.w3.org/1999/xlink" version="1.1" x="0" y="0" viewBox="7.8 9.8 83.9 79.9" enable-background="new 0 0 100 100" xml:space="preserve" height="183.2443930155121" width="192.41807977473673" class="icon-icon-0" data-fill-palette-color="accent" id="SvgjsSvg1019"><rect x="7.8" y="9.8" width="35" height="35" fill="black"></rect><rect x="56.7" y="54.7" width="35" height="35" fill="black"></rect><path d="M33.3 61.4H40L29.4 50.9 18.8 61.4l6.7 0C26.5 73.5 36.7 83 49 83v-7.8C41 75.3 34.3 69.2 33.3 61.4z" fill="black"></path><path d="M66 38.9h-6.6l10.6 10.6 10.6-10.6-6.7 0c-1-12.1-11.2-21.6-23.6-21.6v7.8C58.3 25.1 65 31.1 66 38.9z" fill="black"></path></svg></g></svg></g></svg></g><defs><mask></mask></defs></svg><rect width="395.52" height="116.44577769098213" fill="black" stroke="none" visibility="hidden"></rect></g></mask></svg><rect width="395.52" height="116.44577769098213" fill="black" stroke="none" visibility="hidden"></rect></g></mask></svg><rect width="395.52" height="116.44577769098213" fill="black" stroke="none" visibility="hidden"></rect></g></mask><linearGradient x1="0" x2="1" y1="0.578" y2="0.595" id="9de3c1e9-08f9-4482-9b4d-b1b251892561"><stop stop-color="#6ee2f5" offset="0"></stop><stop stop-color="#6454f0" offset="1"></stop></linearGradient><rect width="395.52" height="116.44577769098213" fill="url(#9de3c1e9-08f9-4482-9b4d-b1b251892561)" mask="url(#fd990503-8fc6-4ce1-b6b7-7358c4fd5068)" data-fill-palette-color="accent"></rect></svg><rect width="395.52" height="116.44577769098213" fill="none" stroke="none" visibility="hidden"></rect></g></svg></g></svg>