<svg xmlns="http://www.w3.org/2000/svg" version="1.1" xmlns:xlink="http://www.w3.org/1999/xlink" xmlns:svgjs="http://svgjs.dev/svgjs" width="2000" height="863" viewBox="0 0 2000 863"><g transform="matrix(1,0,0,1,-1.2121212121212466,0.6148070629703284)"><svg viewBox="0 0 396 171" data-background-color="#444444" preserveAspectRatio="xMidYMid meet" height="863" width="2000" xmlns="http://www.w3.org/2000/svg" xmlns:xlink="http://www.w3.org/1999/xlink"><g id="tight-bounds" transform="matrix(1,0,0,1,0.2400000000000091,-0.12182156172413272)"><svg viewBox="0 0 395.52 171.24364312344827" height="171.24364312344827" width="395.52"><g><svg viewBox="0 0 395.52 171.24364312344827" height="171.24364312344827" width="395.52"><g transform="matrix(1,0,0,1,0,88.0469694873395)"><svg viewBox="0 0 395.52 83.19667363610877" height="83.19667363610877" width="395.52"><g id="textblocktransform"><svg viewBox="0 0 395.52 83.19667363610877" height="83.19667363610877" width="395.52" id="textblock"><g><svg viewBox="0 0 395.52 83.19667363610877" height="83.19667363610877" width="395.52"><g transform="matrix(1,0,0,1,0,0)"><svg width="395.52" viewBox="4.635769999999999 -21.84413 234.85116 49.40038" height="83.19667363610877" data-palette-color="url(#16f3845a-cb2d-4ec9-8185-25c1ca7996c0)"></svg></g></svg></g></svg></g></svg></g><g transform="matrix(1,0,0,1,173.62520788877828,0)"><svg viewBox="0 0 48.269584222443406 83.19667363610877" height="83.19667363610877" width="48.269584222443406"><g><svg xmlns="http://www.w3.org/2000/svg" xmlns:xlink="http://www.w3.org/1999/xlink" version="1.1" x="0" y="0" viewBox="21.679106830508623 1 56.85827385947761 98" enable-background="new 0 0 100 100" xml:space="preserve" height="83.19667363610877" width="48.269584222443406" class="icon-icon-0" data-fill-palette-color="accent" id="icon-0"></svg></g></svg></g><g></g></svg></g><defs></defs><mask id="36bf98c1-2abc-4adc-bacc-856e74383123"><g id="SvgjsG2175"><svg viewBox="0 0 395.52 171.24364312344827" height="171.24364312344827" width="395.52"><g><svg viewBox="0 0 395.52 171.24364312344827" height="171.24364312344827" width="395.52"><g transform="matrix(1,0,0,1,0,88.0469694873395)"><svg viewBox="0 0 395.52 83.19667363610877" height="83.19667363610877" width="395.52"><g id="SvgjsG2174"><svg viewBox="0 0 395.52 83.19667363610877" height="83.19667363610877" width="395.52" id="SvgjsSvg2173"><g><svg viewBox="0 0 395.52 83.19667363610877" height="83.19667363610877" width="395.52"><g transform="matrix(1,0,0,1,0,0)"><svg width="395.52" viewBox="4.635769999999999 -21.84413 234.85116 49.40038" height="83.19667363610877" data-palette-color="url(#16f3845a-cb2d-4ec9-8185-25c1ca7996c0)"><path d="M33.909-15.864l-0.825 3.925-12.017-2.527-6.495 30.895-4.414-0.928 6.495-30.895-12.017-2.526 0.825-3.924zM46.697 22.158v0c-2.481-0.36-4.655-1.181-6.523-2.463-1.874-1.289-3.423-2.892-4.647-4.808-1.224-1.916-2.077-3.997-2.56-6.243-0.489-2.247-0.57-4.495-0.243-6.745v0c0.341-2.349 1.089-4.527 2.243-6.535 1.154-2.008 2.604-3.738 4.351-5.188 1.747-1.451 3.7-2.518 5.861-3.201 2.154-0.684 4.422-0.853 6.804-0.507v0c2.481 0.36 4.656 1.198 6.526 2.514 1.869 1.322 3.405 2.947 4.608 4.873 1.208 1.934 2.054 4.014 2.539 6.24 0.484 2.233 0.565 4.458 0.243 6.674v0c-0.341 2.349-1.079 4.529-2.213 6.54-1.141 2.01-2.585 3.741-4.331 5.191-1.747 1.451-3.696 2.511-5.849 3.182-2.158 0.663-4.428 0.822-6.809 0.476zM37.237 2.555v0c-0.26 1.788-0.221 3.559 0.118 5.312 0.338 1.753 0.942 3.35 1.81 4.79 0.874 1.447 1.999 2.658 3.373 3.633 1.381 0.975 2.978 1.595 4.792 1.858v0c1.887 0.274 3.63 0.123 5.23-0.453 1.606-0.575 3.027-1.45 4.261-2.625 1.234-1.168 2.242-2.541 3.024-4.118 0.787-1.57 1.303-3.199 1.549-4.888v0c0.26-1.788 0.219-3.549-0.122-5.282-0.333-1.739-0.943-3.34-1.829-4.803-0.886-1.462-2.01-2.67-3.374-3.623-1.363-0.959-2.938-1.569-4.726-1.828v0c-1.88-0.273-3.622-0.129-5.227 0.433-1.597 0.556-3.012 1.422-4.247 2.596-1.234 1.168-2.25 2.529-3.049 4.084-0.805 1.554-1.333 3.192-1.583 4.914zM74.956 25.248l-4.496-0.35 2.752-35.423 4.496 0.349-1.521 19.581 19.81-18.21 4.845 0.377-15.451 14.526 13.493 21.009-5.045-0.392-11.51-18.136-6.531 5.831zM108.399 23.167l19.636 0.38-0.077 4.009-24.146-0.467 0.689-35.574 23.696 0.459-0.078 4.009-19.186-0.371-0.224 11.518 16.687 0.323-0.072 3.759-16.687-0.323zM160.886 26.072l-22.632-26.288 1.202 27.234-4.505 0.199-1.569-35.546 3.806-0.168 22.955 26.824-1.224-27.733 4.506-0.199 1.567 35.495zM178.872 24.297l-4.479 0.523-4.121-35.29 4.479-0.523 2.278 19.508 15.933-21.685 4.827-0.563-12.365 17.23 17.286 18.017-5.026 0.587-14.786-15.581-5.287 6.981zM211.77 19.967l-4.456 0.699-5.517-35.149 4.456-0.7zM238.675-21.814l0.812 3.927-12.026 2.487 6.395 30.916-4.416 0.914-6.395-30.916-12.025 2.487-0.813-3.927z" opacity="1" transform="matrix(1,0,0,1,0,0)" fill="white" class="wordmark-text-0" id="SvgjsPath2172"></path></svg></g></svg></g></svg></g></svg></g><g transform="matrix(1,0,0,1,173.62520788877828,0)"><svg viewBox="0 0 48.269584222443406 83.19667363610877" height="83.19667363610877" width="48.269584222443406"><g><svg xmlns="http://www.w3.org/2000/svg" xmlns:xlink="http://www.w3.org/1999/xlink" version="1.1" x="0" y="0" viewBox="21.679106830508623 1 56.85827385947761 98" enable-background="new 0 0 100 100" xml:space="preserve" height="83.19667363610877" width="48.269584222443406" class="icon-icon-0" data-fill-palette-color="accent" id="SvgjsSvg2171"><g fill="black"><path fill-rule="evenodd" clip-rule="evenodd" d="M30.545 28.822c-1.165 7.217 0.33 14.85 6.5 19.041C30.758 19.81 45.756 8.664 59.646 1c-16.18 23.046 16.896 23.644 18.777 50.13C80.028 73.71 64.507 91.317 46.639 99c0.206-22.825-22.55-25.933-24.838-44.603C20.905 47.094 25.062 33.766 30.545 28.822z" fill="black"></path></g></svg></g></svg></g><g></g></svg></g><defs><mask></mask></defs></svg><rect width="395.52" height="171.24364312344827" fill="black" stroke="none" visibility="hidden"></rect></g></mask><linearGradient x1="0" x2="1" y1="0.578" y2="0.595" id="16f3845a-cb2d-4ec9-8185-25c1ca7996c0"><stop stop-color="#6ee2f5" offset="0"></stop><stop stop-color="#6454f0" offset="1"></stop></linearGradient><rect width="395.52" height="171.24364312344827" fill="url(#16f3845a-cb2d-4ec9-8185-25c1ca7996c0)" mask="url(#36bf98c1-2abc-4adc-bacc-856e74383123)" data-fill-palette-color="primary"></rect><mask id="c7acc8ea-9a0a-49d1-a1d1-c0cd66bf4961"><g id="SvgjsG2184"><svg viewBox="0 0 395.52 171.24364312344827" height="171.24364312344827" width="395.52"><g><svg viewBox="0 0 395.52 171.24364312344827" height="171.24364312344827" width="395.52"><g transform="matrix(1,0,0,1,0,88.0469694873395)"><svg viewBox="0 0 395.52 83.19667363610877" height="83.19667363610877" width="395.52"><g id="SvgjsG2183"><svg viewBox="0 0 395.52 83.19667363610877" height="83.19667363610877" width="395.52" id="SvgjsSvg2182"><g><svg viewBox="0 0 395.52 83.19667363610877" height="83.19667363610877" width="395.52"><g transform="matrix(1,0,0,1,0,0)"><svg width="395.52" viewBox="4.635769999999999 -21.84413 234.85116 49.40038" height="83.19667363610877" data-palette-color="url(#16f3845a-cb2d-4ec9-8185-25c1ca7996c0)"></svg></g></svg></g></svg></g></svg></g><g transform="matrix(1,0,0,1,173.62520788877828,0)"><svg viewBox="0 0 48.269584222443406 83.19667363610877" height="83.19667363610877" width="48.269584222443406"><g><svg xmlns="http://www.w3.org/2000/svg" xmlns:xlink="http://www.w3.org/1999/xlink" version="1.1" x="0" y="0" viewBox="21.679106830508623 1 56.85827385947761 98" enable-background="new 0 0 100 100" xml:space="preserve" height="83.19667363610877" width="48.269584222443406" class="icon-icon-0" data-fill-palette-color="accent" id="SvgjsSvg2181"><g fill="white"><path fill-rule="evenodd" clip-rule="evenodd" d="M30.545 28.822c-1.165 7.217 0.33 14.85 6.5 19.041C30.758 19.81 45.756 8.664 59.646 1c-16.18 23.046 16.896 23.644 18.777 50.13C80.028 73.71 64.507 91.317 46.639 99c0.206-22.825-22.55-25.933-24.838-44.603C20.905 47.094 25.062 33.766 30.545 28.822z" fill="white"></path></g></svg></g></svg></g><g></g></svg></g><defs><mask></mask></defs><mask><g id="SvgjsG2180"><svg viewBox="0 0 395.52 171.24364312344827" height="171.24364312344827" width="395.52"><g><svg viewBox="0 0 395.52 171.24364312344827" height="171.24364312344827" width="395.52"><g transform="matrix(1,0,0,1,0,88.0469694873395)"><svg viewBox="0 0 395.52 83.19667363610877" height="83.19667363610877" width="395.52"><g id="SvgjsG2179"><svg viewBox="0 0 395.52 83.19667363610877" height="83.19667363610877" width="395.52" id="SvgjsSvg2178"><g><svg viewBox="0 0 395.52 83.19667363610877" height="83.19667363610877" width="395.52"><g transform="matrix(1,0,0,1,0,0)"><svg width="395.52" viewBox="4.635769999999999 -21.84413 234.85116 49.40038" height="83.19667363610877" data-palette-color="url(#16f3845a-cb2d-4ec9-8185-25c1ca7996c0)"><path d="M33.909-15.864l-0.825 3.925-12.017-2.527-6.495 30.895-4.414-0.928 6.495-30.895-12.017-2.526 0.825-3.924zM46.697 22.158v0c-2.481-0.36-4.655-1.181-6.523-2.463-1.874-1.289-3.423-2.892-4.647-4.808-1.224-1.916-2.077-3.997-2.56-6.243-0.489-2.247-0.57-4.495-0.243-6.745v0c0.341-2.349 1.089-4.527 2.243-6.535 1.154-2.008 2.604-3.738 4.351-5.188 1.747-1.451 3.7-2.518 5.861-3.201 2.154-0.684 4.422-0.853 6.804-0.507v0c2.481 0.36 4.656 1.198 6.526 2.514 1.869 1.322 3.405 2.947 4.608 4.873 1.208 1.934 2.054 4.014 2.539 6.24 0.484 2.233 0.565 4.458 0.243 6.674v0c-0.341 2.349-1.079 4.529-2.213 6.54-1.141 2.01-2.585 3.741-4.331 5.191-1.747 1.451-3.696 2.511-5.849 3.182-2.158 0.663-4.428 0.822-6.809 0.476zM37.237 2.555v0c-0.26 1.788-0.221 3.559 0.118 5.312 0.338 1.753 0.942 3.35 1.81 4.79 0.874 1.447 1.999 2.658 3.373 3.633 1.381 0.975 2.978 1.595 4.792 1.858v0c1.887 0.274 3.63 0.123 5.23-0.453 1.606-0.575 3.027-1.45 4.261-2.625 1.234-1.168 2.242-2.541 3.024-4.118 0.787-1.57 1.303-3.199 1.549-4.888v0c0.26-1.788 0.219-3.549-0.122-5.282-0.333-1.739-0.943-3.34-1.829-4.803-0.886-1.462-2.01-2.67-3.374-3.623-1.363-0.959-2.938-1.569-4.726-1.828v0c-1.88-0.273-3.622-0.129-5.227 0.433-1.597 0.556-3.012 1.422-4.247 2.596-1.234 1.168-2.25 2.529-3.049 4.084-0.805 1.554-1.333 3.192-1.583 4.914zM74.956 25.248l-4.496-0.35 2.752-35.423 4.496 0.349-1.521 19.581 19.81-18.21 4.845 0.377-15.451 14.526 13.493 21.009-5.045-0.392-11.51-18.136-6.531 5.831zM108.399 23.167l19.636 0.38-0.077 4.009-24.146-0.467 0.689-35.574 23.696 0.459-0.078 4.009-19.186-0.371-0.224 11.518 16.687 0.323-0.072 3.759-16.687-0.323zM160.886 26.072l-22.632-26.288 1.202 27.234-4.505 0.199-1.569-35.546 3.806-0.168 22.955 26.824-1.224-27.733 4.506-0.199 1.567 35.495zM178.872 24.297l-4.479 0.523-4.121-35.29 4.479-0.523 2.278 19.508 15.933-21.685 4.827-0.563-12.365 17.23 17.286 18.017-5.026 0.587-14.786-15.581-5.287 6.981zM211.77 19.967l-4.456 0.699-5.517-35.149 4.456-0.7zM238.675-21.814l0.812 3.927-12.026 2.487 6.395 30.916-4.416 0.914-6.395-30.916-12.025 2.487-0.813-3.927z" opacity="1" transform="matrix(1,0,0,1,0,0)" fill="black" class="wordmark-text-0" id="SvgjsPath2177"></path></svg></g></svg></g></svg></g></svg></g><g transform="matrix(1,0,0,1,173.62520788877828,0)"><svg viewBox="0 0 48.269584222443406 83.19667363610877" height="83.19667363610877" width="48.269584222443406"><g><svg xmlns="http://www.w3.org/2000/svg" xmlns:xlink="http://www.w3.org/1999/xlink" version="1.1" x="0" y="0" viewBox="21.679106830508623 1 56.85827385947761 98" enable-background="new 0 0 100 100" xml:space="preserve" height="83.19667363610877" width="48.269584222443406" class="icon-icon-0" data-fill-palette-color="accent" id="SvgjsSvg2176"><g fill="black"><path fill-rule="evenodd" clip-rule="evenodd" d="M30.545 28.822c-1.165 7.217 0.33 14.85 6.5 19.041C30.758 19.81 45.756 8.664 59.646 1c-16.18 23.046 16.896 23.644 18.777 50.13C80.028 73.71 64.507 91.317 46.639 99c0.206-22.825-22.55-25.933-24.838-44.603C20.905 47.094 25.062 33.766 30.545 28.822z" fill="black"></path></g></svg></g></svg></g><g></g></svg></g><defs><mask></mask></defs></svg><rect width="395.52" height="171.24364312344827" fill="black" stroke="none" visibility="hidden"></rect></g></mask></svg><rect width="395.52" height="171.24364312344827" fill="black" stroke="none" visibility="hidden"></rect></g></mask><linearGradient x1="0" x2="1" y1="0.578" y2="0.595" id="931df155-be9b-4b76-bceb-f796a0578968"><stop stop-color="#6ee2f5" offset="0"></stop><stop stop-color="#6454f0" offset="1"></stop></linearGradient><rect width="395.52" height="171.24364312344827" fill="url(#931df155-be9b-4b76-bceb-f796a0578968)" mask="url(#c7acc8ea-9a0a-49d1-a1d1-c0cd66bf4961)" data-fill-palette-color="accent"></rect></svg><rect width="395.52" height="171.24364312344827" fill="none" stroke="none" visibility="hidden"></rect></g></svg></g></svg>